<?plantuml 1.2026.2?><svg xmlns="http://www.w3.org/2000/svg" xmlns:xlink="http://www.w3.org/1999/xlink" contentStyleType="text/css" data-diagram-type="DESCRIPTION" height="1185px" preserveAspectRatio="none" style="width:1895px;height:1185px;background:#FFFFFF;" version="1.1" viewBox="0 0 1895 1185" width="1895px" zoomAndPan="magnify"><title>OpenClaw - Pi Agent Component Diagram</title><defs/><g><g class="title" data-source-line="1"><text fill="#000000" font-family="Arial" font-size="14" font-weight="bold" lengthAdjust="spacing" textLength="279.2412" x="801.3526" y="23.1318">OpenClaw - Pi Agent Component Diagram</text></g><!--cluster Pi Agent Runtime--><g class="cluster" data-qualified-name="Pi Agent Runtime" data-source-line="7" id="ent0002"><path d="M8.5,188.1986 L126.1689,188.1986 A3.75,3.75 0 0 1 128.6689,190.6986 L135.6689,210.2973 L847.5,210.2973 A2.5,2.5 0 0 1 850,212.7973 L850,1176.4886 A2.5,2.5 0 0 1 847.5,1178.9886 L8.5,1178.9886 A2.5,2.5 0 0 1 6,1176.4886 L6,190.6986 A2.5,2.5 0 0 1 8.5,188.1986" fill="none" style="stroke:#000000;stroke-width:1.5;"/><line style="stroke:#000000;stroke-width:1.5;" x1="6" x2="135.6689" y1="210.2973" y2="210.2973"/><text fill="#000000" font-family="Arial" font-size="14" font-weight="bold" lengthAdjust="spacing" textLength="116.6689" x="10" y="203.3305">Pi Agent Runtime</text></g><!--cluster Gateway Interface--><g class="cluster" data-qualified-name="Gateway Interface" data-source-line="24" id="ent0017"><path d="M421.5,43.0986 L542.334,43.0986 A3.75,3.75 0 0 1 544.834,45.5986 L551.834,65.1973 L618.5,65.1973 A2.5,2.5 0 0 1 621,67.6973 L621,137.6986 A2.5,2.5 0 0 1 618.5,140.1986 L421.5,140.1986 A2.5,2.5 0 0 1 419,137.6986 L419,45.5986 A2.5,2.5 0 0 1 421.5,43.0986" fill="none" style="stroke:#000000;stroke-width:1.5;"/><line style="stroke:#000000;stroke-width:1.5;" x1="419" x2="551.834" y1="65.1973" y2="65.1973"/><text fill="#000000" font-family="Arial" font-size="14" font-weight="bold" lengthAdjust="spacing" textLength="119.834" x="423" y="58.2305">Gateway Interface</text></g><!--cluster Tools Layer--><g class="cluster" data-qualified-name="Tools Layer" data-source-line="28" id="ent0019"><path d="M876.5,697.5986 L956.0791,697.5986 A3.75,3.75 0 0 1 958.5791,700.0986 L965.5791,719.6973 L1763.5,719.6973 A2.5,2.5 0 0 1 1766,722.1973 L1766,792.1886 A2.5,2.5 0 0 1 1763.5,794.6886 L876.5,794.6886 A2.5,2.5 0 0 1 874,792.1886 L874,700.0986 A2.5,2.5 0 0 1 876.5,697.5986" fill="none" style="stroke:#000000;stroke-width:1.5;"/><line style="stroke:#000000;stroke-width:1.5;" x1="874" x2="965.5791" y1="719.6973" y2="719.6973"/><text fill="#000000" font-family="Arial" font-size="14" font-weight="bold" lengthAdjust="spacing" textLength="78.5791" x="878" y="712.7305">Tools Layer</text></g><!--cluster AI Services--><g class="cluster" data-qualified-name="AI Services" data-source-line="37" id="ent0026"><path d="M876.5,842.6886 L952.9961,842.6886 A3.75,3.75 0 0 1 955.4961,845.1886 L962.4961,864.7873 L1266.5,864.7873 A2.5,2.5 0 0 1 1269,867.2873 L1269,927.2886 A2.5,2.5 0 0 1 1266.5,929.7886 L876.5,929.7886 A2.5,2.5 0 0 1 874,927.2886 L874,845.1886 A2.5,2.5 0 0 1 876.5,842.6886" fill="none" style="stroke:#000000;stroke-width:1.5;"/><line style="stroke:#000000;stroke-width:1.5;" x1="874" x2="962.4961" y1="864.7873" y2="864.7873"/><text fill="#000000" font-family="Arial" font-size="14" font-weight="bold" lengthAdjust="spacing" textLength="75.4961" x="878" y="857.8205">AI Services</text></g><!--entity ACPConnection--><g class="entity" data-qualified-name="Pi Agent Runtime.ACPConnection" data-source-line="8" id="ent0003"><rect fill="#F1F1F1" height="46.0986" rx="2.5" ry="2.5" style="stroke:#181818;stroke-width:0.5;" width="143.5029" x="448.25" y="223.1986"/><rect fill="#F1F1F1" height="10" style="stroke:#181818;stroke-width:0.5;" width="15" x="571.7529" y="228.1986"/><rect fill="#F1F1F1" height="2" style="stroke:#181818;stroke-width:0.5;" width="4" x="569.7529" y="230.1986"/><rect fill="#F1F1F1" height="2" style="stroke:#181818;stroke-width:0.5;" width="4" x="569.7529" y="234.1986"/><text fill="#000000" font-family="Arial" font-size="14" lengthAdjust="spacing" textLength="103.5029" x="463.25" y="256.3305">ACP Connection</text></g><!--entity SessionCore--><g class="entity" data-qualified-name="Pi Agent Runtime.SessionCore" data-source-line="9" id="ent0004"><rect fill="#F1F1F1" height="46.0986" rx="2.5" ry="2.5" style="stroke:#181818;stroke-width:0.5;" width="124.041" x="533.98" y="467.3986"/><rect fill="#F1F1F1" height="10" style="stroke:#181818;stroke-width:0.5;" width="15" x="638.021" y="472.3986"/><rect fill="#F1F1F1" height="2" style="stroke:#181818;stroke-width:0.5;" width="4" x="636.021" y="474.3986"/><rect fill="#F1F1F1" height="2" style="stroke:#181818;stroke-width:0.5;" width="4" x="636.021" y="478.3986"/><text fill="#000000" font-family="Arial" font-size="14" lengthAdjust="spacing" textLength="84.041" x="548.98" y="500.5305">Session Core</text></g><!--entity Translator--><g class="entity" data-qualified-name="Pi Agent Runtime.Translator" data-source-line="10" id="ent0005"><rect fill="#F1F1F1" height="46.0986" rx="2.5" ry="2.5" style="stroke:#181818;stroke-width:0.5;" width="103.0205" x="468.49" y="345.2986"/><rect fill="#F1F1F1" height="10" style="stroke:#181818;stroke-width:0.5;" width="15" x="551.5105" y="350.2986"/><rect fill="#F1F1F1" height="2" style="stroke:#181818;stroke-width:0.5;" width="4" x="549.5105" y="352.2986"/><rect fill="#F1F1F1" height="2" style="stroke:#181818;stroke-width:0.5;" width="4" x="549.5105" y="356.2986"/><text fill="#000000" font-family="Arial" font-size="14" lengthAdjust="spacing" textLength="63.0205" x="483.49" y="378.4305">Translator</text></g><!--entity PromptProcessor--><g class="entity" data-qualified-name="Pi Agent Runtime.PromptProcessor" data-source-line="11" id="ent0006"><rect fill="#F1F1F1" height="46.0986" rx="2.5" ry="2.5" style="stroke:#181818;stroke-width:0.5;" width="152.0342" x="21.98" y="589.4986"/><rect fill="#F1F1F1" height="10" style="stroke:#181818;stroke-width:0.5;" width="15" x="154.0142" y="594.4986"/><rect fill="#F1F1F1" height="2" style="stroke:#181818;stroke-width:0.5;" width="4" x="152.0142" y="596.4986"/><rect fill="#F1F1F1" height="2" style="stroke:#181818;stroke-width:0.5;" width="4" x="152.0142" y="600.4986"/><text fill="#000000" font-family="Arial" font-size="14" lengthAdjust="spacing" textLength="112.0342" x="36.98" y="622.6305">Prompt Processor</text></g><!--entity ResponseGenerator--><g class="entity" data-qualified-name="Pi Agent Runtime.ResponseGenerator" data-source-line="12" id="ent0007"><rect fill="#F1F1F1" height="46.0986" rx="2.5" ry="2.5" style="stroke:#181818;stroke-width:0.5;" width="169.9648" x="659.02" y="732.5986"/><rect fill="#F1F1F1" height="10" style="stroke:#181818;stroke-width:0.5;" width="15" x="808.9848" y="737.5986"/><rect fill="#F1F1F1" height="2" style="stroke:#181818;stroke-width:0.5;" width="4" x="806.9848" y="739.5986"/><rect fill="#F1F1F1" height="2" style="stroke:#181818;stroke-width:0.5;" width="4" x="806.9848" y="743.5986"/><text fill="#000000" font-family="Arial" font-size="14" lengthAdjust="spacing" textLength="129.9648" x="674.02" y="765.7305">Response Generator</text></g><!--entity StreamingHandler--><g class="entity" data-qualified-name="Pi Agent Runtime.StreamingHandler" data-source-line="13" id="ent0008"><rect fill="#F1F1F1" height="46.0986" rx="2.5" ry="2.5" style="stroke:#181818;stroke-width:0.5;" width="156.7236" x="466.64" y="872.6886"/><rect fill="#F1F1F1" height="10" style="stroke:#181818;stroke-width:0.5;" width="15" x="603.3636" y="877.6886"/><rect fill="#F1F1F1" height="2" style="stroke:#181818;stroke-width:0.5;" width="4" x="601.3636" y="879.6886"/><rect fill="#F1F1F1" height="2" style="stroke:#181818;stroke-width:0.5;" width="4" x="601.3636" y="883.6886"/><text fill="#000000" font-family="Arial" font-size="14" lengthAdjust="spacing" textLength="116.7236" x="481.64" y="905.8205">Streaming Handler</text></g><!--entity ToolRegistry--><g class="entity" data-qualified-name="Pi Agent Runtime.ToolRegistry" data-source-line="14" id="ent0009"><rect fill="#F1F1F1" height="46.0986" rx="2.5" ry="2.5" style="stroke:#181818;stroke-width:0.5;" width="122.4688" x="534.77" y="589.4986"/><rect fill="#F1F1F1" height="10" style="stroke:#181818;stroke-width:0.5;" width="15" x="637.2388" y="594.4986"/><rect fill="#F1F1F1" height="2" style="stroke:#181818;stroke-width:0.5;" width="4" x="635.2388" y="596.4986"/><rect fill="#F1F1F1" height="2" style="stroke:#181818;stroke-width:0.5;" width="4" x="635.2388" y="600.4986"/><text fill="#000000" font-family="Arial" font-size="14" lengthAdjust="spacing" textLength="82.4688" x="549.77" y="622.6305">Tool Registry</text></g><!--entity SkillManager--><g class="entity" data-qualified-name="Pi Agent Runtime.SkillManager" data-source-line="15" id="ent0010"><rect fill="#F1F1F1" height="46.0986" rx="2.5" ry="2.5" style="stroke:#181818;stroke-width:0.5;" width="124.8135" x="374.59" y="589.4986"/><rect fill="#F1F1F1" height="10" style="stroke:#181818;stroke-width:0.5;" width="15" x="479.4035" y="594.4986"/><rect fill="#F1F1F1" height="2" style="stroke:#181818;stroke-width:0.5;" width="4" x="477.4035" y="596.4986"/><rect fill="#F1F1F1" height="2" style="stroke:#181818;stroke-width:0.5;" width="4" x="477.4035" y="600.4986"/><text fill="#000000" font-family="Arial" font-size="14" lengthAdjust="spacing" textLength="84.8135" x="389.59" y="622.6305">Skill Manager</text></g><!--entity MemorySystem--><g class="entity" data-qualified-name="Pi Agent Runtime.MemorySystem" data-source-line="16" id="ent0011"><rect fill="#F1F1F1" height="46.0986" rx="2.5" ry="2.5" style="stroke:#181818;stroke-width:0.5;" width="141.124" x="692.44" y="589.4986"/><rect fill="#F1F1F1" height="10" style="stroke:#181818;stroke-width:0.5;" width="15" x="813.564" y="594.4986"/><rect fill="#F1F1F1" height="2" style="stroke:#181818;stroke-width:0.5;" width="4" x="811.564" y="596.4986"/><rect fill="#F1F1F1" height="2" style="stroke:#181818;stroke-width:0.5;" width="4" x="811.564" y="600.4986"/><text fill="#000000" font-family="Arial" font-size="14" lengthAdjust="spacing" textLength="101.124" x="707.44" y="622.6305">Memory System</text></g><!--entity AuthProfileManager--><g class="entity" data-qualified-name="Pi Agent Runtime.AuthProfileManager" data-source-line="17" id="ent0012"><rect fill="#F1F1F1" height="46.0986" rx="2.5" ry="2.5" style="stroke:#181818;stroke-width:0.5;" width="171.5166" x="658.24" y="872.6886"/><rect fill="#F1F1F1" height="10" style="stroke:#181818;stroke-width:0.5;" width="15" x="809.7566" y="877.6886"/><rect fill="#F1F1F1" height="2" style="stroke:#181818;stroke-width:0.5;" width="4" x="807.7566" y="879.6886"/><rect fill="#F1F1F1" height="2" style="stroke:#181818;stroke-width:0.5;" width="4" x="807.7566" y="883.6886"/><text fill="#000000" font-family="Arial" font-size="14" lengthAdjust="spacing" textLength="131.5166" x="673.24" y="905.8205">Auth Profile Manager</text></g><!--entity FailoverHandler--><g class="entity" data-qualified-name="Pi Agent Runtime.FailoverHandler" data-source-line="18" id="ent0013"><rect fill="#F1F1F1" height="46.0986" rx="2.5" ry="2.5" style="stroke:#181818;stroke-width:0.5;" width="142.71" x="663.65" y="994.7886"/><rect fill="#F1F1F1" height="10" style="stroke:#181818;stroke-width:0.5;" width="15" x="786.36" y="999.7886"/><rect fill="#F1F1F1" height="2" style="stroke:#181818;stroke-width:0.5;" width="4" x="784.36" y="1001.7886"/><rect fill="#F1F1F1" height="2" style="stroke:#181818;stroke-width:0.5;" width="4" x="784.36" y="1005.7886"/><text fill="#000000" font-family="Arial" font-size="14" lengthAdjust="spacing" textLength="102.71" x="678.65" y="1027.9205">Failover Handler</text></g><!--entity RateLimitGuard--><g class="entity" data-qualified-name="Pi Agent Runtime.RateLimitGuard" data-source-line="19" id="ent0014"><rect fill="#F1F1F1" height="46.0986" rx="2.5" ry="2.5" style="stroke:#181818;stroke-width:0.5;" width="145.8203" x="650.09" y="1116.8886"/><rect fill="#F1F1F1" height="10" style="stroke:#181818;stroke-width:0.5;" width="15" x="775.9103" y="1121.8886"/><rect fill="#F1F1F1" height="2" style="stroke:#181818;stroke-width:0.5;" width="4" x="773.9103" y="1123.8886"/><rect fill="#F1F1F1" height="2" style="stroke:#181818;stroke-width:0.5;" width="4" x="773.9103" y="1127.8886"/><text fill="#000000" font-family="Arial" font-size="14" lengthAdjust="spacing" textLength="105.8203" x="665.09" y="1150.0205">Rate Limit Guard</text></g><!--entity TokenTracker--><g class="entity" data-qualified-name="Pi Agent Runtime.TokenTracker" data-source-line="20" id="ent0015"><rect fill="#F1F1F1" height="46.0986" rx="2.5" ry="2.5" style="stroke:#181818;stroke-width:0.5;" width="130.248" x="208.88" y="589.4986"/><rect fill="#F1F1F1" height="10" style="stroke:#181818;stroke-width:0.5;" width="15" x="319.128" y="594.4986"/><rect fill="#F1F1F1" height="2" style="stroke:#181818;stroke-width:0.5;" width="4" x="317.128" y="596.4986"/><rect fill="#F1F1F1" height="2" style="stroke:#181818;stroke-width:0.5;" width="4" x="317.128" y="600.4986"/><text fill="#000000" font-family="Arial" font-size="14" lengthAdjust="spacing" textLength="90.248" x="223.88" y="622.6305">Token Tracker</text></g><!--entity ContextManager--><g class="entity" data-qualified-name="Pi Agent Runtime.ContextManager" data-source-line="21" id="ent0016"><rect fill="#F1F1F1" height="46.0986" rx="2.5" ry="2.5" style="stroke:#181818;stroke-width:0.5;" width="147.3926" x="606.3" y="345.2986"/><rect fill="#F1F1F1" height="10" style="stroke:#181818;stroke-width:0.5;" width="15" x="733.6926" y="350.2986"/><rect fill="#F1F1F1" height="2" style="stroke:#181818;stroke-width:0.5;" width="4" x="731.6926" y="352.2986"/><rect fill="#F1F1F1" height="2" style="stroke:#181818;stroke-width:0.5;" width="4" x="731.6926" y="356.2986"/><text fill="#000000" font-family="Arial" font-size="14" lengthAdjust="spacing" textLength="107.3926" x="621.3" y="378.4305">Context Manager</text></g><!--entity GatewayWS--><g class="entity" data-qualified-name="Gateway Interface.GatewayWS" data-source-line="25" id="ent0018"><rect fill="#F1F1F1" height="46.0986" rx="2.5" ry="2.5" style="stroke:#181818;stroke-width:0.5;" width="170.7236" x="434.64" y="78.0986"/><rect fill="#F1F1F1" height="10" style="stroke:#181818;stroke-width:0.5;" width="15" x="585.3636" y="83.0986"/><rect fill="#F1F1F1" height="2" style="stroke:#181818;stroke-width:0.5;" width="4" x="583.3636" y="85.0986"/><rect fill="#F1F1F1" height="2" style="stroke:#181818;stroke-width:0.5;" width="4" x="583.3636" y="89.0986"/><text fill="#000000" font-family="Arial" font-size="14" lengthAdjust="spacing" textLength="130.7236" x="449.64" y="111.2305">Gateway WebSocket</text></g><!--entity BrowserTool--><g class="entity" data-qualified-name="Tools Layer.BrowserTool" data-source-line="29" id="ent0020"><rect fill="#F1F1F1" height="46.0986" rx="2.5" ry="2.5" style="stroke:#181818;stroke-width:0.5;" width="122.4688" x="889.77" y="732.5986"/><rect fill="#F1F1F1" height="10" style="stroke:#181818;stroke-width:0.5;" width="15" x="992.2388" y="737.5986"/><rect fill="#F1F1F1" height="2" style="stroke:#181818;stroke-width:0.5;" width="4" x="990.2388" y="739.5986"/><rect fill="#F1F1F1" height="2" style="stroke:#181818;stroke-width:0.5;" width="4" x="990.2388" y="743.5986"/><text fill="#000000" font-family="Arial" font-size="14" lengthAdjust="spacing" textLength="82.4688" x="904.77" y="765.7305">Browser Tool</text></g><!--entity CanvasTool--><g class="entity" data-qualified-name="Tools Layer.CanvasTool" data-source-line="30" id="ent0021"><rect fill="#F1F1F1" height="46.0986" rx="2.5" ry="2.5" style="stroke:#181818;stroke-width:0.5;" width="118.5928" x="1047.7" y="732.5986"/><rect fill="#F1F1F1" height="10" style="stroke:#181818;stroke-width:0.5;" width="15" x="1146.2928" y="737.5986"/><rect fill="#F1F1F1" height="2" style="stroke:#181818;stroke-width:0.5;" width="4" x="1144.2928" y="739.5986"/><rect fill="#F1F1F1" height="2" style="stroke:#181818;stroke-width:0.5;" width="4" x="1144.2928" y="743.5986"/><text fill="#000000" font-family="Arial" font-size="14" lengthAdjust="spacing" textLength="78.5928" x="1062.7" y="765.7305">Canvas Tool</text></g><!--entity MediaTool--><g class="entity" data-qualified-name="Tools Layer.MediaTool" data-source-line="31" id="ent0022"><rect fill="#F1F1F1" height="46.0986" rx="2.5" ry="2.5" style="stroke:#181818;stroke-width:0.5;" width="109.2549" x="1201.37" y="732.5986"/><rect fill="#F1F1F1" height="10" style="stroke:#181818;stroke-width:0.5;" width="15" x="1290.6249" y="737.5986"/><rect fill="#F1F1F1" height="2" style="stroke:#181818;stroke-width:0.5;" width="4" x="1288.6249" y="739.5986"/><rect fill="#F1F1F1" height="2" style="stroke:#181818;stroke-width:0.5;" width="4" x="1288.6249" y="743.5986"/><text fill="#000000" font-family="Arial" font-size="14" lengthAdjust="spacing" textLength="69.2549" x="1216.37" y="765.7305">Media Tool</text></g><!--entity NodeTool--><g class="entity" data-qualified-name="Tools Layer.NodeTool" data-source-line="32" id="ent0023"><rect fill="#F1F1F1" height="46.0986" rx="2.5" ry="2.5" style="stroke:#181818;stroke-width:0.5;" width="104.5928" x="1345.7" y="732.5986"/><rect fill="#F1F1F1" height="10" style="stroke:#181818;stroke-width:0.5;" width="15" x="1430.2928" y="737.5986"/><rect fill="#F1F1F1" height="2" style="stroke:#181818;stroke-width:0.5;" width="4" x="1428.2928" y="739.5986"/><rect fill="#F1F1F1" height="2" style="stroke:#181818;stroke-width:0.5;" width="4" x="1428.2928" y="743.5986"/><text fill="#000000" font-family="Arial" font-size="14" lengthAdjust="spacing" textLength="64.5928" x="1360.7" y="765.7305">Node Tool</text></g><!--entity SessionsTool--><g class="entity" data-qualified-name="Tools Layer.SessionsTool" data-source-line="33" id="ent0024"><rect fill="#F1F1F1" height="46.0986" rx="2.5" ry="2.5" style="stroke:#181818;stroke-width:0.5;" width="127.9307" x="1485.03" y="732.5986"/><rect fill="#F1F1F1" height="10" style="stroke:#181818;stroke-width:0.5;" width="15" x="1592.9607" y="737.5986"/><rect fill="#F1F1F1" height="2" style="stroke:#181818;stroke-width:0.5;" width="4" x="1590.9607" y="739.5986"/><rect fill="#F1F1F1" height="2" style="stroke:#181818;stroke-width:0.5;" width="4" x="1590.9607" y="743.5986"/><text fill="#000000" font-family="Arial" font-size="14" lengthAdjust="spacing" textLength="87.9307" x="1500.03" y="765.7305">Sessions Tool</text></g><!--entity CronTool--><g class="entity" data-qualified-name="Tools Layer.CronTool" data-source-line="34" id="ent0025"><rect fill="#F1F1F1" height="46.0986" rx="2.5" ry="2.5" style="stroke:#181818;stroke-width:0.5;" width="101.4688" x="1648.27" y="732.5986"/><rect fill="#F1F1F1" height="10" style="stroke:#181818;stroke-width:0.5;" width="15" x="1729.7388" y="737.5986"/><rect fill="#F1F1F1" height="2" style="stroke:#181818;stroke-width:0.5;" width="4" x="1727.7388" y="739.5986"/><rect fill="#F1F1F1" height="2" style="stroke:#181818;stroke-width:0.5;" width="4" x="1727.7388" y="743.5986"/><text fill="#000000" font-family="Arial" font-size="14" lengthAdjust="spacing" textLength="61.4688" x="1663.27" y="765.7305">Cron Tool</text></g><!--entity OpenAI--><g class="entity" data-qualified-name="AI Services.OpenAI" data-source-line="38" id="ent0027"><rect fill="#F1F1F1" height="36.0986" rx="2.5" ry="2.5" style="stroke:#181818;stroke-width:0.5;" width="93.9307" x="890.03" y="877.6886"/><text fill="#000000" font-family="Arial" font-size="14" lengthAdjust="spacing" textLength="73.9307" x="900.03" y="900.8205">OpenAI API</text></g><!--entity Anthropic--><g class="entity" data-qualified-name="AI Services.Anthropic" data-source-line="39" id="ent0028"><rect fill="#F1F1F1" height="36.0986" rx="2.5" ry="2.5" style="stroke:#181818;stroke-width:0.5;" width="105.5996" x="1019.2" y="877.6886"/><text fill="#000000" font-family="Arial" font-size="14" lengthAdjust="spacing" textLength="85.5996" x="1029.2" y="900.8205">Anthropic API</text></g><!--entity OtherLLM--><g class="entity" data-qualified-name="AI Services.OtherLLM" data-source-line="40" id="ent0029"><rect fill="#F1F1F1" height="36.0986" rx="2.5" ry="2.5" style="stroke:#181818;stroke-width:0.5;" width="93.1377" x="1159.43" y="877.6886"/><text fill="#000000" font-family="Arial" font-size="14" lengthAdjust="spacing" textLength="73.1377" x="1169.43" y="900.8205">Other LLMs</text></g><!--entity MemoryDB--><g class="entity" data-qualified-name="MemoryDB" data-source-line="43" id="ent0030"><path d="M1785.05,743.0986 C1785.05,733.0986 1831.9982,733.0986 1831.9982,733.0986 C1831.9982,733.0986 1878.9465,733.0986 1878.9465,743.0986 L1878.9465,768.1973 C1878.9465,778.1973 1831.9982,778.1973 1831.9982,778.1973 C1831.9982,778.1973 1785.05,778.1973 1785.05,768.1973 L1785.05,743.0986" fill="#F1F1F1" style="stroke:#181818;stroke-width:0.5;"/><path d="M1785.05,743.0986 C1785.05,753.0986 1831.9982,753.0986 1831.9982,753.0986 C1831.9982,753.0986 1878.9465,753.0986 1878.9465,743.0986" fill="none" style="stroke:#181818;stroke-width:0.5;"/><text fill="#000000" font-family="Arial" font-size="14" lengthAdjust="spacing" textLength="73.8965" x="1795.05" y="770.2305">Memory DB</text></g><!--entity SessionsDB--><g class="entity" data-qualified-name="SessionsDB" data-source-line="44" id="ent0031"><path d="M868.93,599.9986 C868.93,589.9986 919.0023,589.9986 919.0023,589.9986 C919.0023,589.9986 969.0745,589.9986 969.0745,599.9986 L969.0745,625.0973 C969.0745,635.0973 919.0023,635.0973 919.0023,635.0973 C919.0023,635.0973 868.93,635.0973 868.93,625.0973 L868.93,599.9986" fill="#F1F1F1" style="stroke:#181818;stroke-width:0.5;"/><path d="M868.93,599.9986 C868.93,609.9986 919.0023,609.9986 919.0023,609.9986 C919.0023,609.9986 969.0745,609.9986 969.0745,599.9986" fill="none" style="stroke:#181818;stroke-width:0.5;"/><text fill="#000000" font-family="Arial" font-size="14" lengthAdjust="spacing" textLength="80.1445" x="878.93" y="627.1305">Sessions DB</text></g><!--link GatewayWS to ACPConnection--><g class="link" data-entity-1="ent0018" data-entity-2="ent0003" data-link-type="dependency" data-source-line="46" id="lnk32"><path d="M520,124.5086 C520,151.3886 520,190.2286 520,217.0486" fill="none" id="GatewayWS-to-ACPConnection" style="stroke:#181818;stroke-width:1;"/><polygon fill="#181818" points="520,223.0486,524,214.0486,520,218.0486,516,214.0486,520,223.0486" style="stroke:#181818;stroke-width:1;"/><text fill="#000000" font-family="Arial" font-size="13" lengthAdjust="spacing" textLength="69.3735" x="521" y="169.3925">bidirectional</text></g><!--link ACPConnection to Translator--><g class="link" data-entity-1="ent0003" data-entity-2="ent0005" data-link-type="dependency" data-source-line="47" id="lnk33"><path d="M520,269.5586 C520,291.1286 520,317.6286 520,339.1586" fill="none" id="ACPConnection-to-Translator" style="stroke:#181818;stroke-width:1;"/><polygon fill="#181818" points="520,345.1586,524,336.1586,520,340.1586,516,336.1586,520,345.1586" style="stroke:#181818;stroke-width:1;"/><text fill="#000000" font-family="Arial" font-size="13" lengthAdjust="spacing" textLength="56.3608" x="521" y="312.4925">translates</text></g><!--link Translator to SessionCore--><g class="link" data-entity-1="ent0005" data-entity-2="ent0004" data-link-type="dependency" data-source-line="48" id="lnk34"><path d="M520.48,391.8486 C521.66,405.7986 524.85,423.6286 533,437.3986 C539.79,448.8686 545.3791,455.2228 555.6991,463.3628" fill="none" id="Translator-to-SessionCore" style="stroke:#181818;stroke-width:1;"/><polygon fill="#181818" points="560.41,467.0786,555.8208,458.3643,556.4842,463.9821,550.8664,464.6456,560.41,467.0786" style="stroke:#181818;stroke-width:1;"/><text fill="#000000" font-family="Arial" font-size="13" lengthAdjust="spacing" textLength="86.709" x="534" y="434.5925">delivers events</text></g><!--link SessionCore to PromptProcessor--><g class="link" data-entity-1="ent0004" data-entity-2="ent0006" data-link-type="dependency" data-source-line="49" id="lnk35"><path d="M533.68,506.4786 C442.47,528.4686 278.6028,567.9921 180.0728,591.7521" fill="none" id="SessionCore-to-PromptProcessor" style="stroke:#181818;stroke-width:1;"/><polygon fill="#181818" points="174.24,593.1586,183.9269,594.9373,179.1007,591.9865,182.0515,587.1603,174.24,593.1586" style="stroke:#181818;stroke-width:1;"/><text fill="#000000" font-family="Arial" font-size="13" lengthAdjust="spacing" textLength="91.0508" x="377.82" y="556.6925">processes input</text></g><!--link PromptProcessor to ResponseGenerator--><g class="link" data-entity-1="ent0006" data-entity-2="ent0007" data-link-type="dependency" data-source-line="50" id="lnk36"><path d="M166.95,636.0686 C212.59,650.4186 273.95,668.6786 329,681.5986 C442.07,708.1086 568.5567,728.9362 652.8567,741.6162" fill="none" id="PromptProcessor-to-ResponseGenerator" style="stroke:#181818;stroke-width:1;"/><polygon fill="#181818" points="658.79,742.5086,650.4851,737.2145,653.8456,741.7649,649.2951,745.1255,658.79,742.5086" style="stroke:#181818;stroke-width:1;"/><text fill="#000000" font-family="Arial" font-size="13" lengthAdjust="spacing" textLength="114.9116" x="330" y="678.7925">generates response</text></g><!--link ResponseGenerator to StreamingHandler--><g class="link" data-entity-1="ent0007" data-entity-2="ent0008" data-link-type="dependency" data-source-line="51" id="lnk37"><path d="M701.02,779.1586 C684.4,788.3586 665.46,799.4686 649,810.6886 C620.81,829.9186 595.2465,850.8633 574.7165,868.5433" fill="none" id="ResponseGenerator-to-StreamingHandler" style="stroke:#181818;stroke-width:1;"/><polygon fill="#181818" points="570.17,872.4586,579.5999,869.6166,573.9587,869.1959,574.3795,863.5547,570.17,872.4586" style="stroke:#181818;stroke-width:1;"/><text fill="#000000" font-family="Arial" font-size="13" lengthAdjust="spacing" textLength="85.9854" x="650" y="823.8825">streams output</text></g><!--link SessionCore to ToolRegistry--><g class="link" data-entity-1="ent0004" data-entity-2="ent0009" data-link-type="dependency" data-source-line="52" id="lnk38"><path d="M596,513.7586 C596,535.3286 596,561.8286 596,583.3586" fill="none" id="SessionCore-to-ToolRegistry" style="stroke:#181818;stroke-width:1;"/><polygon fill="#181818" points="596,589.3586,600,580.3586,596,584.3586,592,580.3586,596,589.3586" style="stroke:#181818;stroke-width:1;"/><text fill="#000000" font-family="Arial" font-size="13" lengthAdjust="spacing" textLength="80.9326" x="597" y="556.6925">requests tools</text></g><!--link SessionCore to SkillManager--><g class="link" data-entity-1="ent0004" data-entity-2="ent0010" data-link-type="dependency" data-source-line="53" id="lnk39"><path d="M564.27,513.9886 C551.66,523.0586 537.07,533.6686 524,543.4986 C504.08,558.4786 486.6541,572.0642 469.7041,585.4842" fill="none" id="SessionCore-to-SkillManager" style="stroke:#181818;stroke-width:1;"/><polygon fill="#181818" points="465,589.2086,474.5391,586.7581,468.9201,586.1049,469.5732,580.4859,465,589.2086" style="stroke:#181818;stroke-width:1;"/><text fill="#000000" font-family="Arial" font-size="13" lengthAdjust="spacing" textLength="62.8545" x="525" y="556.6925">loads skills</text></g><!--link SessionCore to MemorySystem--><g class="link" data-entity-1="ent0004" data-entity-2="ent0011" data-link-type="dependency" data-source-line="54" id="lnk40"><path d="M638.76,513.8686 C654.08,522.4986 671.21,532.8386 686,543.4986 C705.26,557.3586 720.9209,571.0764 735.7209,585.0064" fill="none" id="SessionCore-to-MemorySystem" style="stroke:#181818;stroke-width:1;"/><polygon fill="#181818" points="740.09,589.1186,736.2779,580.0375,736.4491,585.6917,730.7948,585.863,740.09,589.1186" style="stroke:#181818;stroke-width:1;"/><text fill="#000000" font-family="Arial" font-size="13" lengthAdjust="spacing" textLength="75.8608" x="707.04" y="556.6925">store/retrieve</text></g><!--link ToolRegistry to BrowserTool--><g class="link" data-entity-1="ent0009" data-entity-2="ent0020" data-link-type="dependency" data-source-line="55" id="lnk41"><path d="M657.46,634.0286 C701.16,648.2486 761.37,667.1586 815,681.5986 C830.41,685.7386 835.29,683.3986 850,689.5986 C875.95,700.5186 897.7656,714.4823 917.1756,728.5823" fill="none" id="ToolRegistry-to-BrowserTool" style="stroke:#181818;stroke-width:1;"/><polygon fill="#181818" points="922.03,732.1086,917.0994,723.5829,917.9847,729.17,912.3976,730.0553,922.03,732.1086" style="stroke:#181818;stroke-width:1;"/><text fill="#000000" font-family="Arial" font-size="13" lengthAdjust="spacing" textLength="26.0063" x="816" y="678.7925">calls</text></g><!--link ToolRegistry to CanvasTool--><g class="link" data-entity-1="ent0009" data-entity-2="ent0021" data-link-type="dependency" data-source-line="56" id="lnk42"><path d="M657.49,631.4886 C663.39,632.9686 669.29,634.3686 675,635.5986 C831.03,669.1086 884.68,623.6186 1030,689.5986 C1051.99,699.5786 1068.4397,713.4239 1082.8097,728.0139" fill="none" id="ToolRegistry-to-CanvasTool" style="stroke:#181818;stroke-width:1;"/><polygon fill="#181818" points="1087.02,732.2886,1083.5544,723.0697,1083.5114,728.7263,1077.8547,728.6834,1087.02,732.2886" style="stroke:#181818;stroke-width:1;"/><text fill="#000000" font-family="Arial" font-size="13" lengthAdjust="spacing" textLength="26.0063" x="1005.79" y="678.7925">calls</text></g><!--link ToolRegistry to MediaTool--><g class="link" data-entity-1="ent0009" data-entity-2="ent0022" data-link-type="dependency" data-source-line="57" id="lnk43"><path d="M657.41,631.8986 C663.32,633.2986 669.25,634.5686 675,635.5986 C898.94,675.6486 979.21,590.5386 1184,689.5986 C1204.93,699.7186 1220.1669,713.4046 1233.4969,727.9546" fill="none" id="ToolRegistry-to-MediaTool" style="stroke:#181818;stroke-width:1;"/><polygon fill="#181818" points="1237.55,732.3786,1234.4197,723.0405,1234.1724,728.6919,1228.521,728.4446,1237.55,732.3786" style="stroke:#181818;stroke-width:1;"/><text fill="#000000" font-family="Arial" font-size="13" lengthAdjust="spacing" textLength="26.0063" x="1161.01" y="678.7925">calls</text></g><!--link ToolRegistry to NodeTool--><g class="link" data-entity-1="ent0009" data-entity-2="ent0023" data-link-type="dependency" data-source-line="58" id="lnk44"><path d="M657.38,632.0486 C663.3,633.4186 669.24,634.6386 675,635.5986 C903.79,673.6586 965.69,638.1286 1196,665.5986 C1255.21,672.6586 1274.68,662.8886 1328,689.5986 C1348.32,699.7686 1362.9408,713.2158 1375.8608,727.6658" fill="none" id="ToolRegistry-to-NodeTool" style="stroke:#181818;stroke-width:1;"/><polygon fill="#181818" points="1379.86,732.1386,1376.843,722.7632,1376.5273,728.4113,1370.8793,728.0956,1379.86,732.1386" style="stroke:#181818;stroke-width:1;"/><text fill="#000000" font-family="Arial" font-size="13" lengthAdjust="spacing" textLength="26.0063" x="1311.14" y="678.7925">calls</text></g><!--link ToolRegistry to SessionsTool--><g class="link" data-entity-1="ent0009" data-entity-2="ent0024" data-link-type="dependency" data-source-line="59" id="lnk45"><path d="M657.37,632.1286 C663.29,633.4786 669.23,634.6686 675,635.5986 C969.78,682.6886 1049.61,630.0186 1346,665.5986 C1400.87,672.1786 1417.9,666.2886 1468,689.5986 C1490.4,700.0186 1507.6647,713.7923 1522.9247,728.1823" fill="none" id="ToolRegistry-to-SessionsTool" style="stroke:#181818;stroke-width:1;"/><polygon fill="#181818" points="1527.29,732.2986,1523.4864,723.2139,1523.6523,728.8683,1517.9979,729.0342,1527.29,732.2986" style="stroke:#181818;stroke-width:1;"/><text fill="#000000" font-family="Arial" font-size="13" lengthAdjust="spacing" textLength="26.0063" x="1449.71" y="678.7925">calls</text></g><!--link ToolRegistry to CronTool--><g class="link" data-entity-1="ent0009" data-entity-2="ent0025" data-link-type="dependency" data-source-line="60" id="lnk46"><path d="M657.36,632.1786 C663.28,633.5186 669.23,634.6986 675,635.5986 C1030.95,691.0686 1126.57,629.4386 1485,665.5986 C1517.5,668.8686 1600.73,675.0986 1630,689.5986 C1650.36,699.6786 1664.8762,713.2768 1677.5662,727.8268" fill="none" id="ToolRegistry-to-CronTool" style="stroke:#181818;stroke-width:1;"/><polygon fill="#181818" points="1681.51,732.3486,1678.6089,722.9367,1678.2235,728.5805,1672.5798,728.1951,1681.51,732.3486" style="stroke:#181818;stroke-width:1;"/><text fill="#000000" font-family="Arial" font-size="13" lengthAdjust="spacing" textLength="26.0063" x="1604.96" y="678.7925">calls</text></g><!--link ResponseGenerator to AuthProfileManager--><g class="link" data-entity-1="ent0007" data-entity-2="ent0012" data-link-type="dependency" data-source-line="61" id="lnk47"><path d="M744,779.1386 C744,804.8186 744,840.5786 744,866.2586" fill="none" id="ResponseGenerator-to-AuthProfileManager" style="stroke:#181818;stroke-width:1;"/><polygon fill="#181818" points="744,872.2586,748,863.2586,744,867.2586,740,863.2586,744,872.2586" style="stroke:#181818;stroke-width:1;"/><text fill="#000000" font-family="Arial" font-size="13" lengthAdjust="spacing" textLength="79.479" x="745" y="823.8825">selects profile</text></g><!--link AuthProfileManager to FailoverHandler--><g class="link" data-entity-1="ent0012" data-entity-2="ent0013" data-link-type="dependency" data-source-line="62" id="lnk48"><path d="M742.33,919.0486 C740.71,940.6186 738.7302,967.1355 737.1102,988.6655" fill="none" id="AuthProfileManager-to-FailoverHandler" style="stroke:#181818;stroke-width:1;"/><polygon fill="#181818" points="736.66,994.6486,741.324,985.9741,737.0352,989.6627,733.3466,985.3739,736.66,994.6486" style="stroke:#181818;stroke-width:1;"/><text fill="#000000" font-family="Arial" font-size="13" lengthAdjust="spacing" textLength="41.9072" x="741.04" y="961.9825">failover</text></g><!--link FailoverHandler to RateLimitGuard--><g class="link" data-entity-1="ent0013" data-entity-2="ent0014" data-link-type="dependency" data-source-line="63" id="lnk49"><path d="M732.77,1041.1486 C730.62,1062.7186 727.9662,1089.2483 725.8162,1110.7783" fill="none" id="FailoverHandler-to-RateLimitGuard" style="stroke:#181818;stroke-width:1;"/><polygon fill="#181818" points="725.22,1116.7486,730.0945,1108.1906,725.7168,1111.7734,722.1341,1107.3957,725.22,1116.7486" style="stroke:#181818;stroke-width:1;"/><text fill="#000000" font-family="Arial" font-size="13" lengthAdjust="spacing" textLength="109.8208" x="730.72" y="1084.0825">rate limit protection</text></g><!--link ResponseGenerator to OpenAI--><g class="link" data-entity-1="ent0007" data-entity-2="ent0027" data-link-type="dependency" data-source-line="64" id="lnk50"><path d="M783.27,778.9486 C799.03,788.2986 817.18,799.5686 833,810.6886 C863.58,832.1886 892.2804,855.9769 912.7504,873.5769" fill="none" id="ResponseGenerator-to-OpenAI" style="stroke:#181818;stroke-width:1;"/><polygon fill="#181818" points="917.3,877.4886,913.0834,868.588,913.5087,874.2289,907.8678,874.6541,917.3,877.4886" style="stroke:#181818;stroke-width:1;"/><text fill="#000000" font-family="Arial" font-size="13" lengthAdjust="spacing" textLength="44.0718" x="854.65" y="823.8825">API call</text></g><!--link ResponseGenerator to Anthropic--><g class="link" data-entity-1="ent0007" data-entity-2="ent0028" data-link-type="dependency" data-source-line="65" id="lnk51"><path d="M803.09,779.1086 C825.17,787.0986 850.57,795.8086 874,802.6886 C929.85,819.0986 949.3,807.9486 1001,834.6886 C1022.08,845.5986 1038.1252,859.5281 1051.5752,873.0281" fill="none" id="ResponseGenerator-to-Anthropic" style="stroke:#181818;stroke-width:1;"/><polygon fill="#181818" points="1055.81,877.2786,1052.2915,868.0797,1052.281,873.7365,1046.6242,873.7261,1055.81,877.2786" style="stroke:#181818;stroke-width:1;"/><text fill="#000000" font-family="Arial" font-size="13" lengthAdjust="spacing" textLength="44.0718" x="984.66" y="823.8825">API call</text></g><!--link ResponseGenerator to OtherLLM--><g class="link" data-entity-1="ent0007" data-entity-2="ent0029" data-link-type="dependency" data-source-line="66" id="lnk52"><path d="M796.46,779.1586 C819.77,788.1286 847.81,797.5286 874,802.6886 C991.69,825.8886 1036.17,778.2186 1142,834.6886 C1161.89,845.3086 1176.241,859.1927 1188.121,872.8427" fill="none" id="ResponseGenerator-to-OtherLLM" style="stroke:#181818;stroke-width:1;"/><polygon fill="#181818" points="1192.06,877.3686,1189.1687,867.9537,1188.7775,873.597,1183.1342,873.2058,1192.06,877.3686" style="stroke:#181818;stroke-width:1;"/><text fill="#000000" font-family="Arial" font-size="13" lengthAdjust="spacing" textLength="44.0718" x="1124.58" y="823.8825">API call</text></g><!--link TokenTracker to ResponseGenerator--><g class="link" data-entity-1="ent0015" data-entity-2="ent0007" data-link-type="dependency" data-source-line="67" id="lnk53"><path d="M339.35,633.1686 C425.87,659.1386 572.3235,703.1031 663.3735,730.4431" fill="none" id="TokenTracker-to-ResponseGenerator" style="stroke:#181818;stroke-width:1;"/><polygon fill="#181818" points="669.12,732.1686,661.6506,725.7493,664.3312,730.7307,659.3499,733.4113,669.12,732.1686" style="stroke:#181818;stroke-width:1;"/><text fill="#000000" font-family="Arial" font-size="13" lengthAdjust="spacing" textLength="73.7026" x="495.91" y="678.7925">tracks usage</text></g><!--link ContextManager to SessionCore--><g class="link" data-entity-1="ent0016" data-entity-2="ent0004" data-link-type="dependency" data-source-line="68" id="lnk54"><path d="M664.4,391.6586 C649.31,413.2286 630.0191,440.8121 614.9591,462.3421" fill="none" id="ContextManager-to-SessionCore" style="stroke:#181818;stroke-width:1;"/><polygon fill="#181818" points="611.52,467.2586,619.9563,462.1765,614.3859,463.1615,613.4009,457.5911,611.52,467.2586" style="stroke:#181818;stroke-width:1;"/><text fill="#000000" font-family="Arial" font-size="13" lengthAdjust="spacing" textLength="99.0044" x="644.03" y="434.5925">manages context</text></g><!--link MemorySystem to MemoryDB--><g class="link" data-entity-1="ent0011" data-entity-2="ent0030" data-link-type="dependency" data-source-line="69" id="lnk55"><path d="M833.83,632.6386 C839.61,633.7786 845.39,634.7986 851,635.5986 C1201.05,685.4986 1294.86,624.1186 1646,665.5986 C1700.01,671.9686 1717.95,664.1086 1766,689.5986 C1785.75,700.0786 1799.667,713.7409 1811.777,728.2609" fill="none" id="MemorySystem-to-MemoryDB" style="stroke:#181818;stroke-width:1;"/><polygon fill="#181818" points="1815.62,732.8686,1812.9274,723.395,1812.4175,729.0288,1806.7837,728.519,1815.62,732.8686" style="stroke:#181818;stroke-width:1;"/><text fill="#000000" font-family="Arial" font-size="13" lengthAdjust="spacing" textLength="44.7891" x="1748.41" y="678.7925">persists</text></g><!--link SessionCore to SessionsDB--><g class="link" data-entity-1="ent0004" data-entity-2="ent0031" data-link-type="dependency" data-source-line="70" id="lnk56"><path d="M658.19,504.2386 C697.08,513.1586 747.79,526.4986 791,543.4986 C823.32,556.2086 852.8045,571.9703 877.9045,586.5803" fill="none" id="SessionCore-to-SessionsDB" style="stroke:#181818;stroke-width:1;"/><polygon fill="#181818" points="883.09,589.5986,877.324,581.6141,878.7687,587.0833,873.2995,588.5281,883.09,589.5986" style="stroke:#181818;stroke-width:1;"/><text fill="#000000" font-family="Arial" font-size="13" lengthAdjust="spacing" textLength="77.3018" x="824.72" y="556.6925">stores history</text></g><?plantuml-src XLLBRzim3BxxLn3PkTXzXm5ve5s1f0kQ0JshDkC8aQLCajC5m_xxI5csvKUsN29-_CINIDfBhn2-Nr2lbVY01zXBM9QeFQnDTJ6QJnifIYkgB7DdgI-2Zb0PRVAJDHN2KIY7YQh0ewYLVpJQlmZIBwqKAj6_Y_nSMbFhOcsKiV3fCVoox48AKI8ikX1UQ-rbXGludG7zyYwYnNAzfm2rnjnBenSW713K8sF-0PqZcEvO3Em8i3pc_h12EoMyiO7PYsFYdlA_UA2_dAn5UWDssFZEApewEeGdr6Wx9otSePC4l4LHILt2Dw4BXSsr3etW91LZ5DakfVFsrcH3I0jCV9obKh0JcbuXscSa0cFs3YjZRt2uEOzLO3T80qmUhFOdhirHKhkbBbWHyJkE7eLKvefsa7aBtadyLNY4hQoaXwTQsA8fCe412z2qLcVK_DhvEVe8I0J6R6erZx_y89M8jMdyILhwYLn_Y1iy4yCUHJxNqotd3TyFXdpwO3IYRuU1FNv61rjnOzSJIojhFXmLZ5d1I0HOdYGYz3NsHPD4aEUOEooaw8b1dEEzc09x6ajph3Y0YUSMcOtIql3sCP8KM6b9bizamLubpLrR4alBGEYIEcx16uuOo_rpiD28Oz9IUzff5vbtl0wPsFCdAl1sktEDFHP9ueWAuSMxe15lHsIpIiPZiqe8NH4YfPM9b7KF3myFNuVR3Rx0kooaRIJQhaCjy_kjHMGV1NHPWZCjMOF4Ar19cYa7UAMgkopLCdkqs-Z6fJcZ0rhljS_63BursMrqhspETCz6RJQbXG176uxkkW0vCBLdb-CWqmr7R8i_QtJUWUUHcR3J3KTiPKJXm34uvQRxBSH1YiyMlPLKhspWb-d9q14x5snoGkh7xJwdcxJxb7RAxZFIwVf7E76oEiRygqoNDjS35JMWuvvWHJP3uhkZpKqNZn79nghGFOEbpG_Agrs5rKwUVFpUpySPf_uBptD8w5u-tU3_bzfEUifCFnHtMzwpta7jg1BPy5CnCufLq3ZQWO6O3NglRyRDYeUGHfQUSAQvktNIjgk3a-J3BViB?></g></svg>