<?plantuml 1.2026.2?><svg xmlns="http://www.w3.org/2000/svg" xmlns:xlink="http://www.w3.org/1999/xlink" contentStyleType="text/css" data-diagram-type="DESCRIPTION" height="825px" preserveAspectRatio="none" style="width:2974px;height:825px;background:#FFFFFF;" version="1.1" viewBox="0 0 2974 825" width="2974px" zoomAndPan="magnify"><title>OpenClaw - Container Diagram (C4 Container)</title><defs/><g><g class="title" data-source-line="1"><text fill="#000000" font-family="Arial" font-size="14" font-weight="bold" lengthAdjust="spacing" textLength="306.4824" x="1327.1533" y="23.1318">OpenClaw - Container Diagram (C4 Container)</text></g><!--cluster openclaw--><g class="cluster" data-qualified-name="openclaw" data-source-line="9" id="ent0003"><path d="M8.5,180.6986 L131.6514,180.6986 A3.75,3.75 0 0 1 134.1514,183.1986 L141.1514,202.7973 L2081.5,202.7973 A2.5,2.5 0 0 1 2084,205.2973 L2084,816.4886 A2.5,2.5 0 0 1 2081.5,818.9886 L8.5,818.9886 A2.5,2.5 0 0 1 6,816.4886 L6,183.1986 A2.5,2.5 0 0 1 8.5,180.6986" fill="none" style="stroke:#000000;stroke-width:1.5;"/><line style="stroke:#000000;stroke-width:1.5;" x1="6" x2="141.1514" y1="202.7973" y2="202.7973"/><text fill="#000000" font-family="Arial" font-size="14" font-weight="bold" lengthAdjust="spacing" textLength="122.1514" x="10" y="195.8305">OpenClaw System</text></g><!--cluster Application Layer--><g class="cluster" data-qualified-name="openclaw.Application Layer" data-source-line="10" id="ent0004"><path d="M32.5,223.6986 L150.9688,223.6986 A3.75,3.75 0 0 1 153.4688,226.1986 L160.4688,245.7973 L398.5,245.7973 A2.5,2.5 0 0 1 401,248.2973 L401,631.2886 A2.5,2.5 0 0 1 398.5,633.7886 L32.5,633.7886 A2.5,2.5 0 0 1 30,631.2886 L30,226.1986 A2.5,2.5 0 0 1 32.5,223.6986" fill="none" style="stroke:#000000;stroke-width:1.5;"/><line style="stroke:#000000;stroke-width:1.5;" x1="30" x2="160.4688" y1="245.7973" y2="245.7973"/><text fill="#000000" font-family="Arial" font-size="14" font-weight="bold" lengthAdjust="spacing" textLength="117.4688" x="34" y="238.8305">Application Layer</text></g><!--cluster Channel Layer--><g class="cluster" data-qualified-name="openclaw.Channel Layer" data-source-line="17" id="ent0010"><path d="M427.5,528.6386 L524.9756,528.6386 A3.75,3.75 0 0 1 527.4756,531.1386 L534.4756,550.7373 L1476.5,550.7373 A2.5,2.5 0 0 1 1479,553.2373 L1479,623.2386 A2.5,2.5 0 0 1 1476.5,625.7386 L427.5,625.7386 A2.5,2.5 0 0 1 425,623.2386 L425,531.1386 A2.5,2.5 0 0 1 427.5,528.6386" fill="none" style="stroke:#000000;stroke-width:1.5;"/><line style="stroke:#000000;stroke-width:1.5;" x1="425" x2="534.4756" y1="550.7373" y2="550.7373"/><text fill="#000000" font-family="Arial" font-size="14" font-weight="bold" lengthAdjust="spacing" textLength="96.4756" x="429" y="543.7705">Channel Layer</text></g><!--cluster Tools Layer--><g class="cluster" data-qualified-name="openclaw.Tools Layer" data-source-line="25" id="ent0017"><path d="M32.5,681.7886 L112.0791,681.7886 A3.75,3.75 0 0 1 114.5791,684.2886 L121.5791,703.8873 L717.5,703.8873 A2.5,2.5 0 0 1 720,706.3873 L720,792.4886 A2.5,2.5 0 0 1 717.5,794.9886 L32.5,794.9886 A2.5,2.5 0 0 1 30,792.4886 L30,684.2886 A2.5,2.5 0 0 1 32.5,681.7886" fill="none" style="stroke:#000000;stroke-width:1.5;"/><line style="stroke:#000000;stroke-width:1.5;" x1="30" x2="121.5791" y1="703.8873" y2="703.8873"/><text fill="#000000" font-family="Arial" font-size="14" font-weight="bold" lengthAdjust="spacing" textLength="78.5791" x="34" y="696.9205">Tools Layer</text></g><!--cluster Storage Layer--><g class="cluster" data-qualified-name="openclaw.Storage Layer" data-source-line="31" id="ent0022"><path d="M1505.5,521.0986 L1599.8721,521.0986 A3.75,3.75 0 0 1 1602.3721,523.5986 L1609.3721,543.1973 L2057.5,543.1973 A2.5,2.5 0 0 1 2060,545.6973 L2060,630.7886 A2.5,2.5 0 0 1 2057.5,633.2886 L1505.5,633.2886 A2.5,2.5 0 0 1 1503,630.7886 L1503,523.5986 A2.5,2.5 0 0 1 1505.5,521.0986" fill="none" style="stroke:#000000;stroke-width:1.5;"/><line style="stroke:#000000;stroke-width:1.5;" x1="1503" x2="1609.3721" y1="543.1973" y2="543.1973"/><text fill="#000000" font-family="Arial" font-size="14" font-weight="bold" lengthAdjust="spacing" textLength="93.3721" x="1507" y="536.2305">Storage Layer</text></g><!--entity cli--><g class="entity" data-qualified-name="openclaw.Application Layer.cli" data-source-line="11" id="ent0005"><rect fill="#F1F1F1" height="62.1973" rx="2.5" ry="2.5" style="stroke:#181818;stroke-width:0.5;" width="166.0479" x="45.98" y="258.6986"/><rect fill="#F1F1F1" height="10" style="stroke:#181818;stroke-width:0.5;" width="15" x="192.0279" y="263.6986"/><rect fill="#F1F1F1" height="2" style="stroke:#181818;stroke-width:0.5;" width="4" x="190.0279" y="265.6986"/><rect fill="#F1F1F1" height="2" style="stroke:#181818;stroke-width:0.5;" width="4" x="190.0279" y="269.6986"/><text fill="#000000" font-family="Arial" font-size="14" lengthAdjust="spacing" textLength="21.7861" x="60.98" y="291.8305">CLI</text><text fill="#000000" font-family="Arial" font-size="14" lengthAdjust="spacing" textLength="126.0479" x="60.98" y="307.9291">[TypeScript/Node.js]</text></g><!--entity gateway--><g class="entity" data-qualified-name="openclaw.Application Layer.gateway" data-source-line="12" id="ent0006"><rect fill="#F1F1F1" height="62.1973" rx="2.5" ry="2.5" style="stroke:#181818;stroke-width:0.5;" width="166.0479" x="218.98" y="396.8986"/><rect fill="#F1F1F1" height="10" style="stroke:#181818;stroke-width:0.5;" width="15" x="365.0279" y="401.8986"/><rect fill="#F1F1F1" height="2" style="stroke:#181818;stroke-width:0.5;" width="4" x="363.0279" y="403.8986"/><rect fill="#F1F1F1" height="2" style="stroke:#181818;stroke-width:0.5;" width="4" x="363.0279" y="407.8986"/><text fill="#000000" font-family="Arial" font-size="14" lengthAdjust="spacing" textLength="55.248" x="233.98" y="430.0305">Gateway</text><text fill="#000000" font-family="Arial" font-size="14" lengthAdjust="spacing" textLength="126.0479" x="233.98" y="446.1291">[TypeScript/Node.js]</text></g><!--entity agent--><g class="entity" data-qualified-name="openclaw.Application Layer.agent" data-source-line="13" id="ent0007"><rect fill="#F1F1F1" height="62.1973" rx="2.5" ry="2.5" style="stroke:#181818;stroke-width:0.5;" width="166.0479" x="49.98" y="555.5986"/><rect fill="#F1F1F1" height="10" style="stroke:#181818;stroke-width:0.5;" width="15" x="196.0279" y="560.5986"/><rect fill="#F1F1F1" height="2" style="stroke:#181818;stroke-width:0.5;" width="4" x="194.0279" y="562.5986"/><rect fill="#F1F1F1" height="2" style="stroke:#181818;stroke-width:0.5;" width="4" x="194.0279" y="566.5986"/><text fill="#000000" font-family="Arial" font-size="14" lengthAdjust="spacing" textLength="108.9443" x="64.98" y="588.7305">Pi Agent Runtime</text><text fill="#000000" font-family="Arial" font-size="14" lengthAdjust="spacing" textLength="126.0479" x="64.98" y="604.8291">[TypeScript/Node.js]</text></g><!--entity webchat--><g class="entity" data-qualified-name="openclaw.Application Layer.webchat" data-source-line="14" id="ent0008"><rect fill="#F1F1F1" height="62.1973" rx="2.5" ry="2.5" style="stroke:#181818;stroke-width:0.5;" width="138.793" x="246.6" y="258.6986"/><rect fill="#F1F1F1" height="10" style="stroke:#181818;stroke-width:0.5;" width="15" x="365.393" y="263.6986"/><rect fill="#F1F1F1" height="2" style="stroke:#181818;stroke-width:0.5;" width="4" x="363.393" y="265.6986"/><rect fill="#F1F1F1" height="2" style="stroke:#181818;stroke-width:0.5;" width="4" x="363.393" y="269.6986"/><text fill="#000000" font-family="Arial" font-size="14" lengthAdjust="spacing" textLength="76.248" x="261.6" y="291.8305">WebChat UI</text><text fill="#000000" font-family="Arial" font-size="14" lengthAdjust="spacing" textLength="98.793" x="261.6" y="307.9291">[HTML/CSS/JS]</text></g><!--entity canvas--><g class="entity" data-qualified-name="openclaw.Application Layer.canvas" data-source-line="15" id="ent0009"><rect fill="#F1F1F1" height="62.1973" rx="2.5" ry="2.5" style="stroke:#181818;stroke-width:0.5;" width="134.917" x="250.54" y="555.5986"/><rect fill="#F1F1F1" height="10" style="stroke:#181818;stroke-width:0.5;" width="15" x="365.457" y="560.5986"/><rect fill="#F1F1F1" height="2" style="stroke:#181818;stroke-width:0.5;" width="4" x="363.457" y="562.5986"/><rect fill="#F1F1F1" height="2" style="stroke:#181818;stroke-width:0.5;" width="4" x="363.457" y="566.5986"/><text fill="#000000" font-family="Arial" font-size="14" lengthAdjust="spacing" textLength="80.1445" x="265.54" y="588.7305">Canvas Host</text><text fill="#000000" font-family="Arial" font-size="14" lengthAdjust="spacing" textLength="94.917" x="265.54" y="604.8291">[TypeScript/JS]</text></g><!--entity telegram_h--><g class="entity" data-qualified-name="openclaw.Channel Layer.telegram_h" data-source-line="18" id="ent0011"><rect fill="#F1F1F1" height="46.0986" rx="2.5" ry="2.5" style="stroke:#181818;stroke-width:0.5;" width="152.0479" x="440.98" y="563.6386"/><rect fill="#F1F1F1" height="10" style="stroke:#181818;stroke-width:0.5;" width="15" x="573.0279" y="568.6386"/><rect fill="#F1F1F1" height="2" style="stroke:#181818;stroke-width:0.5;" width="4" x="571.0279" y="570.6386"/><rect fill="#F1F1F1" height="2" style="stroke:#181818;stroke-width:0.5;" width="4" x="571.0279" y="574.6386"/><text fill="#000000" font-family="Arial" font-size="14" lengthAdjust="spacing" textLength="112.0479" x="455.98" y="596.7705">Telegram Handler</text></g><!--entity whatsapp_h--><g class="entity" data-qualified-name="openclaw.Channel Layer.whatsapp_h" data-source-line="19" id="ent0012"><rect fill="#F1F1F1" height="46.0986" rx="2.5" ry="2.5" style="stroke:#181818;stroke-width:0.5;" width="157.5029" x="628.25" y="563.6386"/><rect fill="#F1F1F1" height="10" style="stroke:#181818;stroke-width:0.5;" width="15" x="765.7529" y="568.6386"/><rect fill="#F1F1F1" height="2" style="stroke:#181818;stroke-width:0.5;" width="4" x="763.7529" y="570.6386"/><rect fill="#F1F1F1" height="2" style="stroke:#181818;stroke-width:0.5;" width="4" x="763.7529" y="574.6386"/><text fill="#000000" font-family="Arial" font-size="14" lengthAdjust="spacing" textLength="117.5029" x="643.25" y="596.7705">WhatsApp Handler</text></g><!--entity slack_h--><g class="entity" data-qualified-name="openclaw.Channel Layer.slack_h" data-source-line="20" id="ent0013"><rect fill="#F1F1F1" height="46.0986" rx="2.5" ry="2.5" style="stroke:#181818;stroke-width:0.5;" width="127.1514" x="820.42" y="563.6386"/><rect fill="#F1F1F1" height="10" style="stroke:#181818;stroke-width:0.5;" width="15" x="927.5714" y="568.6386"/><rect fill="#F1F1F1" height="2" style="stroke:#181818;stroke-width:0.5;" width="4" x="925.5714" y="570.6386"/><rect fill="#F1F1F1" height="2" style="stroke:#181818;stroke-width:0.5;" width="4" x="925.5714" y="574.6386"/><text fill="#000000" font-family="Arial" font-size="14" lengthAdjust="spacing" textLength="87.1514" x="835.42" y="596.7705">Slack Handler</text></g><!--entity discord_h--><g class="entity" data-qualified-name="openclaw.Channel Layer.discord_h" data-source-line="21" id="ent0014"><rect fill="#F1F1F1" height="46.0986" rx="2.5" ry="2.5" style="stroke:#181818;stroke-width:0.5;" width="140.3721" x="982.81" y="563.6386"/><rect fill="#F1F1F1" height="10" style="stroke:#181818;stroke-width:0.5;" width="15" x="1103.1821" y="568.6386"/><rect fill="#F1F1F1" height="2" style="stroke:#181818;stroke-width:0.5;" width="4" x="1101.1821" y="570.6386"/><rect fill="#F1F1F1" height="2" style="stroke:#181818;stroke-width:0.5;" width="4" x="1101.1821" y="574.6386"/><text fill="#000000" font-family="Arial" font-size="14" lengthAdjust="spacing" textLength="100.3721" x="997.81" y="596.7705">Discord Handler</text></g><!--entity signal_h--><g class="entity" data-qualified-name="openclaw.Channel Layer.signal_h" data-source-line="22" id="ent0015"><rect fill="#F1F1F1" height="46.0986" rx="2.5" ry="2.5" style="stroke:#181818;stroke-width:0.5;" width="131.834" x="1158.08" y="563.6386"/><rect fill="#F1F1F1" height="10" style="stroke:#181818;stroke-width:0.5;" width="15" x="1269.914" y="568.6386"/><rect fill="#F1F1F1" height="2" style="stroke:#181818;stroke-width:0.5;" width="4" x="1267.914" y="570.6386"/><rect fill="#F1F1F1" height="2" style="stroke:#181818;stroke-width:0.5;" width="4" x="1267.914" y="574.6386"/><text fill="#000000" font-family="Arial" font-size="14" lengthAdjust="spacing" textLength="91.834" x="1173.08" y="596.7705">Signal Handler</text></g><!--entity other_h--><g class="entity" data-qualified-name="openclaw.Channel Layer.other_h" data-source-line="23" id="ent0016"><rect fill="#F1F1F1" height="46.0986" rx="2.5" ry="2.5" style="stroke:#181818;stroke-width:0.5;" width="138.0547" x="1324.97" y="563.6386"/><rect fill="#F1F1F1" height="10" style="stroke:#181818;stroke-width:0.5;" width="15" x="1443.0247" y="568.6386"/><rect fill="#F1F1F1" height="2" style="stroke:#181818;stroke-width:0.5;" width="4" x="1441.0247" y="570.6386"/><rect fill="#F1F1F1" height="2" style="stroke:#181818;stroke-width:0.5;" width="4" x="1441.0247" y="574.6386"/><text fill="#000000" font-family="Arial" font-size="14" lengthAdjust="spacing" textLength="98.0547" x="1339.97" y="596.7705">Other Channels</text></g><!--entity browser--><g class="entity" data-qualified-name="openclaw.Tools Layer.browser" data-source-line="26" id="ent0018"><rect fill="#F1F1F1" height="62.1973" rx="2.5" ry="2.5" style="stroke:#181818;stroke-width:0.5;" width="155.9238" x="46.04" y="716.7886"/><rect fill="#F1F1F1" height="10" style="stroke:#181818;stroke-width:0.5;" width="15" x="181.9638" y="721.7886"/><rect fill="#F1F1F1" height="2" style="stroke:#181818;stroke-width:0.5;" width="4" x="179.9638" y="723.7886"/><rect fill="#F1F1F1" height="2" style="stroke:#181818;stroke-width:0.5;" width="4" x="179.9638" y="727.7886"/><text fill="#000000" font-family="Arial" font-size="14" lengthAdjust="spacing" textLength="115.9238" x="61.04" y="749.9205">Browser Controller</text><text fill="#000000" font-family="Arial" font-size="14" lengthAdjust="spacing" textLength="72.3584" x="61.04" y="766.0191">[Playwright]</text></g><!--entity media--><g class="entity" data-qualified-name="openclaw.Tools Layer.media" data-source-line="27" id="ent0019"><rect fill="#F1F1F1" height="46.0986" rx="2.5" ry="2.5" style="stroke:#181818;stroke-width:0.5;" width="131.834" x="237.08" y="724.8386"/><rect fill="#F1F1F1" height="10" style="stroke:#181818;stroke-width:0.5;" width="15" x="348.914" y="729.8386"/><rect fill="#F1F1F1" height="2" style="stroke:#181818;stroke-width:0.5;" width="4" x="346.914" y="731.8386"/><rect fill="#F1F1F1" height="2" style="stroke:#181818;stroke-width:0.5;" width="4" x="346.914" y="735.8386"/><text fill="#000000" font-family="Arial" font-size="14" lengthAdjust="spacing" textLength="91.834" x="252.08" y="757.9705">Media Pipeline</text></g><!--entity cron--><g class="entity" data-qualified-name="openclaw.Tools Layer.cron" data-source-line="28" id="ent0020"><rect fill="#F1F1F1" height="46.0986" rx="2.5" ry="2.5" style="stroke:#181818;stroke-width:0.5;" width="137.2754" x="404.36" y="724.8386"/><rect fill="#F1F1F1" height="10" style="stroke:#181818;stroke-width:0.5;" width="15" x="521.6354" y="729.8386"/><rect fill="#F1F1F1" height="2" style="stroke:#181818;stroke-width:0.5;" width="4" x="519.6354" y="731.8386"/><rect fill="#F1F1F1" height="2" style="stroke:#181818;stroke-width:0.5;" width="4" x="519.6354" y="735.8386"/><text fill="#000000" font-family="Arial" font-size="14" lengthAdjust="spacing" textLength="97.2754" x="419.36" y="757.9705">Cron Scheduler</text></g><!--entity hooks--><g class="entity" data-qualified-name="openclaw.Tools Layer.hooks" data-source-line="29" id="ent0021"><rect fill="#F1F1F1" height="46.0986" rx="2.5" ry="2.5" style="stroke:#181818;stroke-width:0.5;" width="127.165" x="576.42" y="724.8386"/><rect fill="#F1F1F1" height="10" style="stroke:#181818;stroke-width:0.5;" width="15" x="683.585" y="729.8386"/><rect fill="#F1F1F1" height="2" style="stroke:#181818;stroke-width:0.5;" width="4" x="681.585" y="731.8386"/><rect fill="#F1F1F1" height="2" style="stroke:#181818;stroke-width:0.5;" width="4" x="681.585" y="735.8386"/><text fill="#000000" font-family="Arial" font-size="14" lengthAdjust="spacing" textLength="87.165" x="591.42" y="757.9705">Hooks Engine</text></g><!--entity sessions_db--><g class="entity" data-qualified-name="openclaw.Storage Layer.sessions_db" data-source-line="32" id="ent0023"><path d="M1518.92,566.0986 C1518.92,556.0986 1575.9991,556.0986 1575.9991,556.0986 C1575.9991,556.0986 1633.0782,556.0986 1633.0782,566.0986 L1633.0782,607.2959 C1633.0782,617.2959 1575.9991,617.2959 1575.9991,617.2959 C1575.9991,617.2959 1518.92,617.2959 1518.92,607.2959 L1518.92,566.0986" fill="#F1F1F1" style="stroke:#181818;stroke-width:0.5;"/><path d="M1518.92,566.0986 C1518.92,576.0986 1575.9991,576.0986 1575.9991,576.0986 C1575.9991,576.0986 1633.0782,576.0986 1633.0782,566.0986" fill="none" style="stroke:#181818;stroke-width:0.5;"/><text fill="#000000" font-family="Arial" font-size="14" lengthAdjust="spacing" textLength="94.1582" x="1528.92" y="593.2305">Sessions Store</text><text fill="#000000" font-family="Arial" font-size="14" lengthAdjust="spacing" textLength="50.5791" x="1528.92" y="609.3291">[SQLite]</text></g><!--entity config_db--><g class="entity" data-qualified-name="openclaw.Storage Layer.config_db" data-source-line="33" id="ent0024"><path d="M1668.09,566.0986 C1668.09,556.0986 1717.0002,556.0986 1717.0002,556.0986 C1717.0002,556.0986 1765.9103,556.0986 1765.9103,566.0986 L1765.9103,607.2959 C1765.9103,617.2959 1717.0002,617.2959 1717.0002,617.2959 C1717.0002,617.2959 1668.09,617.2959 1668.09,607.2959 L1668.09,566.0986" fill="#F1F1F1" style="stroke:#181818;stroke-width:0.5;"/><path d="M1668.09,566.0986 C1668.09,576.0986 1717.0002,576.0986 1717.0002,576.0986 C1717.0002,576.0986 1765.9103,576.0986 1765.9103,566.0986" fill="none" style="stroke:#181818;stroke-width:0.5;"/><text fill="#000000" font-family="Arial" font-size="14" lengthAdjust="spacing" textLength="77.8203" x="1678.09" y="593.2305">Config Store</text><text fill="#000000" font-family="Arial" font-size="14" lengthAdjust="spacing" textLength="45.1172" x="1678.09" y="609.3291">[JSON]</text></g><!--entity pairing_db--><g class="entity" data-qualified-name="openclaw.Storage Layer.pairing_db" data-source-line="34" id="ent0025"><path d="M1800.53,566.0986 C1800.53,556.0986 1850.9953,556.0986 1850.9953,556.0986 C1850.9953,556.0986 1901.4607,556.0986 1901.4607,566.0986 L1901.4607,607.2959 C1901.4607,617.2959 1850.9953,617.2959 1850.9953,617.2959 C1850.9953,617.2959 1800.53,617.2959 1800.53,607.2959 L1800.53,566.0986" fill="#F1F1F1" style="stroke:#181818;stroke-width:0.5;"/><path d="M1800.53,566.0986 C1800.53,576.0986 1850.9953,576.0986 1850.9953,576.0986 C1850.9953,576.0986 1901.4607,576.0986 1901.4607,566.0986" fill="none" style="stroke:#181818;stroke-width:0.5;"/><text fill="#000000" font-family="Arial" font-size="14" lengthAdjust="spacing" textLength="80.9307" x="1810.53" y="593.2305">Pairing Store</text><text fill="#000000" font-family="Arial" font-size="14" lengthAdjust="spacing" textLength="50.5791" x="1810.53" y="609.3291">[SQLite]</text></g><!--entity allowlist_db--><g class="entity" data-qualified-name="openclaw.Storage Layer.allowlist_db" data-source-line="35" id="ent0026"><path d="M1936.04,566.0986 C1936.04,556.0986 1989.9985,556.0986 1989.9985,556.0986 C1989.9985,556.0986 2043.957,556.0986 2043.957,566.0986 L2043.957,607.2959 C2043.957,617.2959 1989.9985,617.2959 1989.9985,617.2959 C1989.9985,617.2959 1936.04,617.2959 1936.04,607.2959 L1936.04,566.0986" fill="#F1F1F1" style="stroke:#181818;stroke-width:0.5;"/><path d="M1936.04,566.0986 C1936.04,576.0986 1989.9985,576.0986 1989.9985,576.0986 C1989.9985,576.0986 2043.957,576.0986 2043.957,566.0986" fill="none" style="stroke:#181818;stroke-width:0.5;"/><text fill="#000000" font-family="Arial" font-size="14" lengthAdjust="spacing" textLength="87.917" x="1946.04" y="593.2305">Allowlist Store</text><text fill="#000000" font-family="Arial" font-size="14" lengthAdjust="spacing" textLength="50.5791" x="1946.04" y="609.3291">[SQLite]</text></g><!--entity user--><g class="entity" data-qualified-name="user" data-source-line="7" id="ent0002"><ellipse cx="221.9993" cy="51.0986" fill="#F1F1F1" rx="8" ry="8" style="stroke:#181818;stroke-width:0.5;"/><path d="M221.9993,59.0986 L221.9993,86.0986 M208.9993,67.0986 L234.9993,67.0986 M221.9993,86.0986 L208.9993,101.0986 M221.9993,86.0986 L234.9993,101.0986" fill="none" style="stroke:#181818;stroke-width:0.5;"/><text fill="#000000" font-family="Arial" font-size="14" lengthAdjust="spacing" textLength="29.5586" x="207.22" y="115.7305">User</text></g><!--entity telegram_ext--><g class="entity" data-qualified-name="telegram_ext" data-source-line="39" id="ent0027"><rect fill="#F1F1F1" height="36.0986" rx="2.5" ry="2.5" style="stroke:#181818;stroke-width:0.5;" width="131.2549" x="2369.37" y="729.8386"/><text fill="#000000" font-family="Arial" font-size="14" lengthAdjust="spacing" textLength="111.2549" x="2379.37" y="752.9705">Telegram Servers</text></g><!--entity whatsapp_ext--><g class="entity" data-qualified-name="whatsapp_ext" data-source-line="40" id="ent0028"><rect fill="#F1F1F1" height="36.0986" rx="2.5" ry="2.5" style="stroke:#181818;stroke-width:0.5;" width="136.71" x="2535.65" y="729.8386"/><text fill="#000000" font-family="Arial" font-size="14" lengthAdjust="spacing" textLength="116.71" x="2545.65" y="752.9705">WhatsApp Servers</text></g><!--entity slack_ext--><g class="entity" data-qualified-name="slack_ext" data-source-line="41" id="ent0029"><rect fill="#F1F1F1" height="36.0986" rx="2.5" ry="2.5" style="stroke:#181818;stroke-width:0.5;" width="106.3584" x="2707.82" y="729.8386"/><text fill="#000000" font-family="Arial" font-size="14" lengthAdjust="spacing" textLength="86.3584" x="2717.82" y="752.9705">Slack Servers</text></g><!--entity discord_ext--><g class="entity" data-qualified-name="discord_ext" data-source-line="42" id="ent0030"><rect fill="#F1F1F1" height="36.0986" rx="2.5" ry="2.5" style="stroke:#181818;stroke-width:0.5;" width="119.5791" x="2849.21" y="729.8386"/><text fill="#000000" font-family="Arial" font-size="14" lengthAdjust="spacing" textLength="99.5791" x="2859.21" y="752.9705">Discord Servers</text></g><!--entity openai--><g class="entity" data-qualified-name="openai" data-source-line="43" id="ent0031"><rect fill="#F1F1F1" height="36.0986" rx="2.5" ry="2.5" style="stroke:#181818;stroke-width:0.5;" width="93.9307" x="2100.03" y="729.8386"/><text fill="#000000" font-family="Arial" font-size="14" lengthAdjust="spacing" textLength="73.9307" x="2110.03" y="752.9705">OpenAI API</text></g><!--entity anthropic--><g class="entity" data-qualified-name="anthropic" data-source-line="44" id="ent0032"><rect fill="#F1F1F1" height="36.0986" rx="2.5" ry="2.5" style="stroke:#181818;stroke-width:0.5;" width="105.5996" x="2229.2" y="729.8386"/><text fill="#000000" font-family="Arial" font-size="14" lengthAdjust="spacing" textLength="85.5996" x="2239.2" y="752.9705">Anthropic API</text></g><!--link user to cli--><g class="link" data-entity-1="ent0002" data-entity-2="ent0005" data-link-type="dependency" data-source-line="46" id="lnk33"><path d="M206.84,90.0486 C188.72,100.9686 159.11,121.8686 145,148.6986 C126.94,183.0486 124.8616,222.5738 126.0916,252.2638" fill="none" id="user-to-cli" style="stroke:#181818;stroke-width:1;"/><polygon fill="#181818" points="126.34,258.2586,129.964,249.1008,126.133,253.2629,121.9709,249.4319,126.34,258.2586" style="stroke:#181818;stroke-width:1;"/><text fill="#000000" font-family="Arial" font-size="13" lengthAdjust="spacing" textLength="119.2217" x="146" y="161.8925">executes commands</text></g><!--link user to webchat--><g class="link" data-entity-1="ent0002" data-entity-2="ent0008" data-link-type="dependency" data-source-line="47" id="lnk34"><path d="M237.27,99.7386 C247.62,112.7086 261,130.9486 270,148.6986 C288.18,184.5486 299.8668,223.3074 307.3468,252.4174" fill="none" id="user-to-webchat" style="stroke:#181818;stroke-width:1;"/><polygon fill="#181818" points="308.84,258.2286,310.4743,248.5163,307.5956,253.386,302.726,250.5073,308.84,258.2286" style="stroke:#181818;stroke-width:1;"/><text fill="#000000" font-family="Arial" font-size="13" lengthAdjust="spacing" textLength="70.8018" x="277.86" y="161.8925">accesses UI</text></g><!--link cli to gateway--><g class="link" data-entity-1="ent0005" data-entity-2="ent0006" data-link-type="dependency" data-source-line="48" id="lnk35"><path d="M150.44,321.2786 C161.93,336.2086 176.99,353.7486 193,366.8986 C206.44,377.9386 216.9767,385.0439 232.2767,393.6239" fill="none" id="cli-to-gateway" style="stroke:#181818;stroke-width:1;"/><polygon fill="#181818" points="237.51,396.5586,231.6166,388.6677,233.1489,394.113,227.7036,395.6454,237.51,396.5586" style="stroke:#181818;stroke-width:1;"/><text fill="#000000" font-family="Arial" font-size="13" lengthAdjust="spacing" textLength="106.2344" x="194" y="364.0925">WebSocket:18789</text></g><!--link webchat to gateway--><g class="link" data-entity-1="ent0008" data-entity-2="ent0006" data-link-type="dependency" data-source-line="49" id="lnk36"><path d="M312.86,321.3586 C310.55,343.7986 308.0428,368.16 305.7428,390.56" fill="none" id="webchat-to-gateway" style="stroke:#181818;stroke-width:1;"/><polygon fill="#181818" points="305.13,396.5286,310.0284,387.9843,305.6407,391.5548,302.0702,387.1671,305.13,396.5286" style="stroke:#181818;stroke-width:1;"/><text fill="#000000" font-family="Arial" font-size="13" lengthAdjust="spacing" textLength="58.4937" x="310.42" y="364.0925">HTTP/WS</text></g><!--link gateway to agent--><g class="link" data-entity-1="ent0006" data-entity-2="ent0007" data-link-type="dependency" data-source-line="50" id="lnk37"><path d="M239.54,459.4686 C225.36,467.9586 210.97,477.9486 199,489.0986 C178.49,508.1986 163.9174,529.5868 152.0774,550.0268" fill="none" id="gateway-to-agent" style="stroke:#181818;stroke-width:1;"/><polygon fill="#181818" points="149.07,555.2186,157.0424,549.4358,151.5762,550.8921,150.1199,545.4259,149.07,555.2186" style="stroke:#181818;stroke-width:1;"/><text fill="#000000" font-family="Arial" font-size="13" lengthAdjust="spacing" textLength="100.4199" x="200" y="502.2925">RPC/AC Protocol</text></g><!--link gateway to telegram_h--><g class="link" data-entity-1="ent0006" data-entity-2="ent0011" data-link-type="dependency" data-source-line="51" id="lnk38"><path d="M360.84,459.4686 C376.57,468.3786 393.28,478.5786 408,489.0986 C440.09,512.0286 469.244,538.7003 490.484,559.3103" fill="none" id="gateway-to-telegram_h" style="stroke:#181818;stroke-width:1;"/><polygon fill="#181818" points="494.79,563.4886,491.1165,554.3505,491.2016,560.0067,485.5454,560.0919,494.79,563.4886" style="stroke:#181818;stroke-width:1;"/><text fill="#000000" font-family="Arial" font-size="13" lengthAdjust="spacing" textLength="98.9917" x="428.01" y="502.2925">routes messages</text></g><!--link gateway to whatsapp_h--><g class="link" data-entity-1="ent0006" data-entity-2="ent0012" data-link-type="dependency" data-source-line="52" id="lnk39"><path d="M385.5,441.8586 C449.75,454.0386 539.37,476.1086 611,513.0986 C637.36,526.7086 659.465,543.6533 677.975,559.5233" fill="none" id="gateway-to-whatsapp_h" style="stroke:#181818;stroke-width:1;"/><polygon fill="#181818" points="682.53,563.4286,678.301,554.5339,678.7342,560.1742,673.0939,560.6073,682.53,563.4286" style="stroke:#181818;stroke-width:1;"/><text fill="#000000" font-family="Arial" font-size="13" lengthAdjust="spacing" textLength="98.9917" x="588.68" y="502.2925">routes messages</text></g><!--link gateway to slack_h--><g class="link" data-entity-1="ent0006" data-entity-2="ent0013" data-link-type="dependency" data-source-line="53" id="lnk40"><path d="M385.5,436.7986 C508.53,449.3386 731.65,476.3386 803,513.0986 C827.17,525.5486 845.7018,542.5577 860.8618,558.9177" fill="none" id="gateway-to-slack_h" style="stroke:#181818;stroke-width:1;"/><polygon fill="#181818" points="864.94,563.3186,861.7567,553.9984,861.5415,559.6512,855.8888,559.4359,864.94,563.3186" style="stroke:#181818;stroke-width:1;"/><text fill="#000000" font-family="Arial" font-size="13" lengthAdjust="spacing" textLength="98.9917" x="782.84" y="502.2925">routes messages</text></g><!--link gateway to discord_h--><g class="link" data-entity-1="ent0006" data-entity-2="ent0014" data-link-type="dependency" data-source-line="54" id="lnk41"><path d="M385.12,432.0486 C499.78,437.4986 712.45,452.0386 890,489.0986 C924.26,496.2486 934.28,496.3186 965,513.0986 C989.68,526.5686 1009.6998,543.3169 1026.5198,559.2169" fill="none" id="gateway-to-discord_h" style="stroke:#181818;stroke-width:1;"/><polygon fill="#181818" points="1030.88,563.3386,1027.0875,554.2492,1027.2465,559.9039,1021.5919,560.0629,1030.88,563.3386" style="stroke:#181818;stroke-width:1;"/><text fill="#000000" font-family="Arial" font-size="13" lengthAdjust="spacing" textLength="98.9917" x="949.69" y="502.2925">routes messages</text></g><!--link gateway to signal_h--><g class="link" data-entity-1="ent0006" data-entity-2="ent0015" data-link-type="dependency" data-source-line="55" id="lnk42"><path d="M385.37,430.2286 C525.27,433.5086 815.68,445.4686 1057,489.0986 C1095.21,495.9986 1106.9,494.5286 1141,513.0986 C1165.04,526.1786 1183.9424,543.0016 1199.6324,559.1016" fill="none" id="gateway-to-signal_h" style="stroke:#181818;stroke-width:1;"/><polygon fill="#181818" points="1203.82,563.3986,1200.4033,554.1614,1200.3304,559.8178,1194.674,559.7448,1203.82,563.3986" style="stroke:#181818;stroke-width:1;"/><text fill="#000000" font-family="Arial" font-size="13" lengthAdjust="spacing" textLength="98.9917" x="1125.48" y="502.2925">routes messages</text></g><!--link gateway to other_h--><g class="link" data-entity-1="ent0006" data-entity-2="ent0016" data-link-type="dependency" data-source-line="56" id="lnk43"><path d="M385.42,431.7686 C582.22,438.7286 1070.94,458.5986 1232,489.0986 C1266.39,495.6086 1276.33,496.2386 1307,513.0986 C1331.48,526.5486 1351.2383,543.267 1367.8383,559.177" fill="none" id="gateway-to-other_h" style="stroke:#181818;stroke-width:1;"/><polygon fill="#181818" points="1372.17,563.3286,1368.4402,554.2133,1368.5602,559.8689,1362.9047,559.989,1372.17,563.3286" style="stroke:#181818;stroke-width:1;"/><text fill="#000000" font-family="Arial" font-size="13" lengthAdjust="spacing" textLength="98.9917" x="1291.72" y="502.2925">routes messages</text></g><!--link telegram_h to telegram_ext--><g class="link" data-entity-1="ent0011" data-entity-2="ent0027" data-link-type="dependency" data-source-line="57" id="lnk44"><path d="M546.55,610.0386 C564.23,621.9886 587.73,635.5186 611,641.7886 C657.26,654.2686 2291.68,631.5686 2336,649.7886 C2375.41,665.9986 2404.2314,701.2778 2420.3714,724.5578" fill="none" id="telegram_h-to-telegram_ext" style="stroke:#181818;stroke-width:1;"/><polygon fill="#181818" points="2423.79,729.4886,2421.9494,719.8133,2420.9412,725.3796,2415.3749,724.3714,2423.79,729.4886" style="stroke:#181818;stroke-width:1;"/><text fill="#000000" font-family="Arial" font-size="13" lengthAdjust="spacing" textLength="44.0781" x="2363.1" y="662.9825">Bot API</text></g><!--link whatsapp_h to whatsapp_ext--><g class="link" data-entity-1="ent0012" data-entity-2="ent0028" data-link-type="dependency" data-source-line="58" id="lnk45"><path d="M737.25,610.0386 C755.33,621.9986 779.33,635.5186 803,641.7886 C848.27,653.7886 2444.97,633.8186 2489,649.7886 C2532.48,665.5686 2566.9675,701.3404 2586.4875,724.7504" fill="none" id="whatsapp_h-to-whatsapp_ext" style="stroke:#181818;stroke-width:1;"/><polygon fill="#181818" points="2590.33,729.3586,2587.6384,719.8847,2587.1279,725.5185,2581.4942,725.008,2590.33,729.3586" style="stroke:#181818;stroke-width:1;"/><text fill="#000000" font-family="Arial" font-size="13" lengthAdjust="spacing" textLength="41.9072" x="2519.19" y="662.9825">Baileys</text></g><!--link slack_h to slack_ext--><g class="link" data-entity-1="ent0013" data-entity-2="ent0029" data-link-type="dependency" data-source-line="59" id="lnk46"><path d="M908.98,609.9986 C924.05,621.9386 944.3,635.4586 965,641.7886 C1009.89,655.5186 2610.19,635.7886 2655,649.7886 C2697.64,663.1186 2729.0037,700.3812 2746.1037,724.5412" fill="none" id="slack_h-to-slack_ext" style="stroke:#181818;stroke-width:1;"/><polygon fill="#181818" points="2749.57,729.4386,2747.6355,719.7816,2746.6814,725.3574,2741.1056,724.4034,2749.57,729.4386" style="stroke:#181818;stroke-width:1;"/><text fill="#000000" font-family="Arial" font-size="13" lengthAdjust="spacing" textLength="46.9663" x="2687.21" y="662.9825">Bolt API</text></g><!--link discord_h to discord_ext--><g class="link" data-entity-1="ent0014" data-entity-2="ent0030" data-link-type="dependency" data-source-line="60" id="lnk47"><path d="M1080.44,610.0186 C1096.93,621.9686 1118.93,635.4886 1141,641.7886 C1185.77,654.5686 2774.28,631.2986 2817,649.7886 C2854.72,666.1186 2881.061,701.2126 2895.701,724.4426" fill="none" id="discord_h-to-discord_ext" style="stroke:#181818;stroke-width:1;"/><polygon fill="#181818" points="2898.9,729.5186,2897.4855,719.7719,2896.2341,725.2886,2890.7174,724.0372,2898.9,729.5186" style="stroke:#181818;stroke-width:1;"/><text fill="#000000" font-family="Arial" font-size="13" lengthAdjust="spacing" textLength="54.9072" x="2842.79" y="662.9825">discord.js</text></g><!--link agent to browser--><g class="link" data-entity-1="ent0007" data-entity-2="ent0018" data-link-type="dependency" data-source-line="61" id="lnk48"><path d="M131.29,618.0086 C129.69,646.2486 127.6588,682.1382 126.0588,710.4282" fill="none" id="agent-to-browser" style="stroke:#181818;stroke-width:1;"/><polygon fill="#181818" points="125.72,716.4186,130.2218,707.6589,126.0023,711.4266,122.2346,707.2071,125.72,716.4186" style="stroke:#181818;stroke-width:1;"/><text fill="#000000" font-family="Arial" font-size="13" lengthAdjust="spacing" textLength="50.5781" x="130.31" y="662.9825">calls tool</text></g><!--link agent to media--><g class="link" data-entity-1="ent0007" data-entity-2="ent0019" data-link-type="dependency" data-source-line="62" id="lnk49"><path d="M165.38,618.0086 C198.52,649.0486 244.8697,692.4583 274.5997,720.2883" fill="none" id="agent-to-media" style="stroke:#181818;stroke-width:1;"/><polygon fill="#181818" points="278.98,724.3886,275.1431,715.3179,275.3297,720.9717,269.676,721.1583,278.98,724.3886" style="stroke:#181818;stroke-width:1;"/><text fill="#000000" font-family="Arial" font-size="13" lengthAdjust="spacing" textLength="50.5781" x="213.9" y="662.9825">calls tool</text></g><!--link agent to cron--><g class="link" data-entity-1="ent0007" data-entity-2="ent0020" data-link-type="dependency" data-source-line="63" id="lnk50"><path d="M182.51,618.2586 C198.2,626.8986 215.92,635.6186 233,641.7886 C250.05,647.9486 255.24,646.1286 273,649.7886 C323.28,660.1586 339.86,651.2686 386,673.7886 C411.71,686.3386 431.9741,703.8593 448.3841,720.3993" fill="none" id="agent-to-cron" style="stroke:#181818;stroke-width:1;"/><polygon fill="#181818" points="452.61,724.6586,449.1108,715.4524,449.0884,721.1092,443.4316,721.0869,452.61,724.6586" style="stroke:#181818;stroke-width:1;"/><text fill="#000000" font-family="Arial" font-size="13" lengthAdjust="spacing" textLength="92.4917" x="366.86" y="662.9825">schedules tasks</text></g><!--link agent to hooks--><g class="link" data-entity-1="ent0007" data-entity-2="ent0021" data-link-type="dependency" data-source-line="64" id="lnk51"><path d="M178.92,618.2886 C195.3,627.6086 214.33,636.7286 233,641.7886 C283.43,655.4786 416.3,642.1886 468,649.7886 C509.38,655.8786 522.21,653.8886 559,673.7886 C582.99,686.7686 601.5306,703.8881 616.7406,720.2181" fill="none" id="agent-to-hooks" style="stroke:#181818;stroke-width:1;"/><polygon fill="#181818" points="620.83,724.6086,617.6229,715.2966,617.4222,720.9499,611.7689,720.7491,620.83,724.6086" style="stroke:#181818;stroke-width:1;"/><text fill="#000000" font-family="Arial" font-size="13" lengthAdjust="spacing" textLength="85.2617" x="542.16" y="662.9825">triggers events</text></g><!--link gateway to sessions_db--><g class="link" data-entity-1="ent0006" data-entity-2="ent0023" data-link-type="dependency" data-source-line="65" id="lnk52"><path d="M385.41,431.0086 C606.59,436.7586 1204.42,455.0686 1399,489.0986 C1435.57,495.4886 1445.85,496.3786 1479,513.0986 C1501.54,524.4586 1519.6102,537.3266 1537.3902,551.8266" fill="none" id="gateway-to-sessions_db" style="stroke:#181818;stroke-width:1;"/><polygon fill="#181818" points="1542.04,555.6186,1537.5933,546.8307,1538.1652,552.4586,1532.5373,553.0305,1542.04,555.6186" style="stroke:#181818;stroke-width:1;"/><text fill="#000000" font-family="Arial" font-size="13" lengthAdjust="spacing" textLength="57.0781" x="1462.46" y="502.2925">read/write</text></g><!--link gateway to config_db--><g class="link" data-entity-1="ent0006" data-entity-2="ent0024" data-link-type="dependency" data-source-line="66" id="lnk53"><path d="M385.23,428.9586 C583.75,429.7786 1100.41,437.1686 1528,489.0986 C1583.29,495.8086 1602.47,485.7686 1651,513.0986 C1669.4,523.4586 1681.797,536.0665 1693.467,551.2065" fill="none" id="gateway-to-config_db" style="stroke:#181818;stroke-width:1;"/><polygon fill="#181818" points="1697.13,555.9586,1694.8036,546.3885,1694.0775,551.9985,1688.4675,551.2724,1697.13,555.9586" style="stroke:#181818;stroke-width:1;"/><text fill="#000000" font-family="Arial" font-size="13" lengthAdjust="spacing" textLength="57.0781" x="1635.68" y="502.2925">read/write</text></g><!--link gateway to pairing_db--><g class="link" data-entity-1="ent0006" data-entity-2="ent0025" data-link-type="dependency" data-source-line="67" id="lnk54"><path d="M385.14,429.8986 C646.03,433.1386 1446.3,446.3886 1702,489.0986 C1739.03,495.2786 1751.05,493.3686 1783,513.0986 C1800.93,524.1586 1813.4002,536.5334 1825.5402,551.3034" fill="none" id="gateway-to-pairing_db" style="stroke:#181818;stroke-width:1;"/><polygon fill="#181818" points="1829.35,555.9386,1826.7254,546.4459,1826.1751,552.076,1820.5451,551.5257,1829.35,555.9386" style="stroke:#181818;stroke-width:1;"/><text fill="#000000" font-family="Arial" font-size="13" lengthAdjust="spacing" textLength="57.0781" x="1768.42" y="502.2925">read/write</text></g><!--link gateway to allowlist_db--><g class="link" data-entity-1="ent0006" data-entity-2="ent0026" data-link-type="dependency" data-source-line="68" id="lnk55"><path d="M385.07,429.6786 C661.87,432.3386 1551.22,444.2686 1834,489.0986 C1872.77,495.2386 1885.25,493.0486 1919,513.0986 C1937.49,524.0786 1950.5777,536.5296 1963.2977,551.3196" fill="none" id="gateway-to-allowlist_db" style="stroke:#181818;stroke-width:1;"/><polygon fill="#181818" points="1967.21,555.8686,1964.3742,546.4369,1963.9497,552.0778,1958.3088,551.6533,1967.21,555.8686" style="stroke:#181818;stroke-width:1;"/><text fill="#000000" font-family="Arial" font-size="13" lengthAdjust="spacing" textLength="57.0781" x="1905.24" y="502.2925">read/write</text></g><!--link agent to openai--><g class="link" data-entity-1="ent0007" data-entity-2="ent0031" data-link-type="dependency" data-source-line="69" id="lnk56"><path d="M178.38,618.1586 C194.87,627.5886 214.1,636.8086 233,641.7886 C276.31,653.2086 591.25,647.9086 636,649.7886 C1213.47,674.0686 1907.6389,727.7923 2093.7389,742.6123" fill="none" id="agent-to-openai" style="stroke:#181818;stroke-width:1;"/><polygon fill="#181818" points="2099.72,743.0886,2091.0659,738.3868,2094.7358,742.6917,2090.4309,746.3616,2099.72,743.0886" style="stroke:#181818;stroke-width:1;"/><text fill="#000000" font-family="Arial" font-size="13" lengthAdjust="spacing" textLength="44.0718" x="926.41" y="662.9825">API call</text></g><!--link agent to anthropic--><g class="link" data-entity-1="ent0007" data-entity-2="ent0032" data-link-type="dependency" data-source-line="70" id="lnk57"><path d="M178.36,618.2486 C194.84,627.6986 214.08,636.8986 233,641.7886 C273.12,652.1786 937.56,649.1686 979,649.7886 C1115.9,651.8586 2085.42,619.2486 2211,673.7886 C2237.45,685.2786 2255.6058,706.821 2267.7758,724.561" fill="none" id="agent-to-anthropic" style="stroke:#181818;stroke-width:1;"/><polygon fill="#181818" points="2271.17,729.5086,2269.3771,719.8243,2268.3415,725.3856,2262.7803,724.3499,2271.17,729.5086" style="stroke:#181818;stroke-width:1;"/><text fill="#000000" font-family="Arial" font-size="13" lengthAdjust="spacing" textLength="44.0718" x="2180.64" y="662.9825">API call</text></g><!--link gateway to canvas--><g class="link" data-entity-1="ent0006" data-entity-2="ent0009" data-link-type="dependency" data-source-line="71" id="lnk58"><path d="M305.12,459.5786 C307.94,487.1886 311.4621,521.6295 314.2721,549.2195" fill="none" id="gateway-to-canvas" style="stroke:#181818;stroke-width:1;"/><polygon fill="#181818" points="314.88,555.1886,317.9475,545.8297,314.3734,550.2144,309.9887,546.6402,314.88,555.1886" style="stroke:#181818;stroke-width:1;"/><text fill="#000000" font-family="Arial" font-size="13" lengthAdjust="spacing" textLength="88.8799" x="310.52" y="502.2925">renders canvas</text></g><?plantuml-src XPLDRnCn48Rl_XLMkS2XH4X8V1oGmlAHeDA6RYeEWD34EzsOUEsLxJIDKFyxu_tUu3GvRUPzPjPZUzxrqYlaLoNgHC6Ed_F4Q0zIe-KV9EGM2luqUTb7dp7cDbAN49J2Q2FMrXJ8Rq4v74WPti9M-K-KTmcaJwq4DT1N83QvDLkT9KOPovzygdwCWV3qz-p6eJtZuFYM7XWh2OSS-LctqdJlF1OLOYWcGkmlu_Jhs6bPAYd0IwFv1Un3mPe8Fs6AqcZKdfyb5_EV-iToNs8gh2pzvD9a-FoF-rLL5qh6aZw3nnti7qdCQoAMl91yceUdwwtsii17ga3WOZM-uofPW-StOV6pvTUBIPAcaozfdRR3bI0rsYxeEo9cnldnUzjSKG5LwiDuH-c5MgDwT3UNgB2wDpFGcMfEqJV1t-jeAxHIHwSrIjc589HbF2LLjAOHxq8a3d-GJXYRZV2iZXsfBdCDQbo-2iNnAx-cUMasnzLtCeGQ-c0JbyOez-WMlhTcvq95cXvh52s13cgXOB-pCb_x-fHMDHJB_ugP1BwG9IgQsOekGYXw6onDHohMc6tRLWM5OkZCc8tZ7tNU5bs7GAp5b6OuFFpNP0OULk02WixHO3eUs300wRSBwR7kpJNYxsmLIQLjkPLvb_WblRfiBcubn9CM8AtKUVHrPQt54wTAcPsIpaTJeLNRv0Vsm9X5uK7d2WVZaAAzG-l6uu3tVWXtWp24kq4uWEiH69Br21nWxUKVWktbFq23kKxdVBgOTxuASWXCjIUxBwNe66WZZ0MdvkVdxu9ZyhSSxr5iFOPJAGeQ9DS3ZJaH14BGKHDqCsSXBQYDRv9A5fSQiK7_ziNhLw_Vi3PlJCsMoyNaUyhQI50hroJjUf5CfWbVMEEDC6h4z9v487sAmbeBMWtbkX7OEz49iB6W4rJdFAUgDOvp0ckS9a8D6XprIwTEz7lZmocoGNUZPXiAfCAzOsrhVPjj5LMNwRiQzbX3pJ_wfh7wO0BI-1V9WeQ8Pe9iSI1NXdLC30v5ccjiYtHmcs7nofc8y6IOETrwZdSa7UnlRp9Xyn2o2Vchnn7KMSfnf7UFuypG9iPKl-Pwt4YbxQpQ7cZTc0tbqJhhZteehRFGSFCH_mS0?></g></svg>