<?plantuml 1.2026.2?><svg xmlns="http://www.w3.org/2000/svg" xmlns:xlink="http://www.w3.org/1999/xlink" contentStyleType="text/css" data-diagram-type="DESCRIPTION" height="688px" preserveAspectRatio="none" style="width:1737px;height:688px;background:#FFFFFF;" version="1.1" viewBox="0 0 1737 688" width="1737px" zoomAndPan="magnify"><title>OpenClaw - System Context Diagram (C4 Context)</title><defs/><g><g class="title" data-source-line="1"><text fill="#000000" font-family="Arial" font-size="14" font-weight="bold" lengthAdjust="spacing" textLength="333.7236" x="694.9232" y="23.1318">OpenClaw - System Context Diagram (C4 Context)</text></g><!--cluster openclaw--><g class="cluster" data-qualified-name="openclaw" data-source-line="10" id="ent0004"><path d="M1165.07,332.7986 L1288.2214,332.7986 A3.75,3.75 0 0 1 1290.7214,335.2986 L1297.7214,354.8973 L1728.07,354.8973 A2.5,2.5 0 0 1 1730.57,357.3973 L1730.57,581.6886 A2.5,2.5 0 0 1 1728.07,584.1886 L1165.07,584.1886 A2.5,2.5 0 0 1 1162.57,581.6886 L1162.57,335.2986 A2.5,2.5 0 0 1 1165.07,332.7986" fill="none" style="stroke:#000000;stroke-width:1.5;"/><line style="stroke:#000000;stroke-width:1.5;" x1="1162.57" x2="1297.7214" y1="354.8973" y2="354.8973"/><text fill="#000000" font-family="Arial" font-size="14" font-weight="bold" lengthAdjust="spacing" textLength="122.1514" x="1166.57" y="347.9305">OpenClaw System</text></g><!--entity gateway--><g class="entity" data-qualified-name="openclaw.gateway" data-source-line="11" id="ent0005"><rect fill="#F1F1F1" height="62.1973" rx="2.5" ry="2.5" style="stroke:#181818;stroke-width:0.5;" width="208.082" x="1178.52" y="367.7986"/><rect fill="#F1F1F1" height="10" style="stroke:#181818;stroke-width:0.5;" width="15" x="1366.602" y="372.7986"/><rect fill="#F1F1F1" height="2" style="stroke:#181818;stroke-width:0.5;" width="4" x="1364.602" y="374.7986"/><rect fill="#F1F1F1" height="2" style="stroke:#181818;stroke-width:0.5;" width="4" x="1364.602" y="378.7986"/><text fill="#000000" font-family="Arial" font-size="14" lengthAdjust="spacing" textLength="55.248" x="1193.52" y="400.9305">Gateway</text><text fill="#000000" font-family="Arial" font-size="14" lengthAdjust="spacing" textLength="168.082" x="1193.52" y="417.0291">[WebSocket Control Plane]</text></g><!--entity agent--><g class="entity" data-qualified-name="openclaw.agent" data-source-line="12" id="ent0006"><rect fill="#F1F1F1" height="62.1973" rx="2.5" ry="2.5" style="stroke:#181818;stroke-width:0.5;" width="157.5029" x="1178.81" y="505.9886"/><rect fill="#F1F1F1" height="10" style="stroke:#181818;stroke-width:0.5;" width="15" x="1316.3129" y="510.9886"/><rect fill="#F1F1F1" height="2" style="stroke:#181818;stroke-width:0.5;" width="4" x="1314.3129" y="512.9886"/><rect fill="#F1F1F1" height="2" style="stroke:#181818;stroke-width:0.5;" width="4" x="1314.3129" y="516.9886"/><text fill="#000000" font-family="Arial" font-size="14" lengthAdjust="spacing" textLength="52.9238" x="1193.81" y="539.1205">Pi Agent</text><text fill="#000000" font-family="Arial" font-size="14" lengthAdjust="spacing" textLength="117.5029" x="1193.81" y="555.2191">[AI Agent Runtime]</text></g><!--entity cli--><g class="entity" data-qualified-name="openclaw.cli" data-source-line="13" id="ent0007"><rect fill="#F1F1F1" height="62.1973" rx="2.5" ry="2.5" style="stroke:#181818;stroke-width:0.5;" width="173.8408" x="1371.65" y="505.9886"/><rect fill="#F1F1F1" height="10" style="stroke:#181818;stroke-width:0.5;" width="15" x="1525.4908" y="510.9886"/><rect fill="#F1F1F1" height="2" style="stroke:#181818;stroke-width:0.5;" width="4" x="1523.4908" y="512.9886"/><rect fill="#F1F1F1" height="2" style="stroke:#181818;stroke-width:0.5;" width="4" x="1523.4908" y="516.9886"/><text fill="#000000" font-family="Arial" font-size="14" lengthAdjust="spacing" textLength="21.7861" x="1386.65" y="539.1205">CLI</text><text fill="#000000" font-family="Arial" font-size="14" lengthAdjust="spacing" textLength="133.8408" x="1386.65" y="555.2191">[Command Line Tool]</text></g><!--entity webchat--><g class="entity" data-qualified-name="openclaw.webchat" data-source-line="14" id="ent0008"><rect fill="#F1F1F1" height="62.1973" rx="2.5" ry="2.5" style="stroke:#181818;stroke-width:0.5;" width="134.9307" x="1580.1" y="505.9886"/><rect fill="#F1F1F1" height="10" style="stroke:#181818;stroke-width:0.5;" width="15" x="1695.0307" y="510.9886"/><rect fill="#F1F1F1" height="2" style="stroke:#181818;stroke-width:0.5;" width="4" x="1693.0307" y="512.9886"/><rect fill="#F1F1F1" height="2" style="stroke:#181818;stroke-width:0.5;" width="4" x="1693.0307" y="516.9886"/><text fill="#000000" font-family="Arial" font-size="14" lengthAdjust="spacing" textLength="58.3584" x="1595.1" y="539.1205">WebChat</text><text fill="#000000" font-family="Arial" font-size="14" lengthAdjust="spacing" textLength="94.9307" x="1595.1" y="555.2191">[Web Interface]</text></g><!--entity user--><g class="entity" data-qualified-name="user" data-source-line="7" id="ent0002"><ellipse cx="1097.5693" cy="51.0986" fill="#F1F1F1" rx="8" ry="8" style="stroke:#181818;stroke-width:0.5;"/><path d="M1097.5693,59.0986 L1097.5693,86.0986 M1084.5693,67.0986 L1110.5693,67.0986 M1097.5693,86.0986 L1084.5693,101.0986 M1097.5693,86.0986 L1110.5693,101.0986" fill="none" style="stroke:#181818;stroke-width:0.5;"/><text fill="#000000" font-family="Arial" font-size="14" lengthAdjust="spacing" textLength="29.5586" x="1082.79" y="115.7305">User</text></g><!--entity dev--><g class="entity" data-qualified-name="dev" data-source-line="8" id="ent0003"><ellipse cx="978.5667" cy="203.1986" fill="#F1F1F1" rx="8" ry="8" style="stroke:#181818;stroke-width:0.5;"/><path d="M978.5667,211.1986 L978.5667,238.1986 M965.5667,219.1986 L991.5667,219.1986 M978.5667,238.1986 L965.5667,253.1986 M978.5667,238.1986 L991.5667,253.1986" fill="none" style="stroke:#181818;stroke-width:0.5;"/><text fill="#000000" font-family="Arial" font-size="14" lengthAdjust="spacing" textLength="63.8135" x="946.66" y="267.8305">Developer</text></g><!--entity whatsapp--><g class="entity" data-qualified-name="whatsapp" data-source-line="17" id="ent0009"><rect fill="#F1F1F1" height="36.0986" rx="2.5" ry="2.5" style="stroke:#181818;stroke-width:0.5;" width="84.5859" x="334.27" y="519.0386"/><text fill="#000000" font-family="Arial" font-size="14" lengthAdjust="spacing" textLength="64.5859" x="344.27" y="542.1705">WhatsApp</text></g><!--entity telegram--><g class="entity" data-qualified-name="telegram" data-source-line="18" id="ent0010"><rect fill="#F1F1F1" height="36.0986" rx="2.5" ry="2.5" style="stroke:#181818;stroke-width:0.5;" width="79.1309" x="7" y="519.0386"/><text fill="#000000" font-family="Arial" font-size="14" lengthAdjust="spacing" textLength="59.1309" x="17" y="542.1705">Telegram</text></g><!--entity slack--><g class="entity" data-qualified-name="slack" data-source-line="19" id="ent0011"><rect fill="#F1F1F1" height="36.0986" rx="2.5" ry="2.5" style="stroke:#181818;stroke-width:0.5;" width="54.2344" x="471.45" y="519.0386"/><text fill="#000000" font-family="Arial" font-size="14" lengthAdjust="spacing" textLength="34.2344" x="481.45" y="542.1705">Slack</text></g><!--entity discord--><g class="entity" data-qualified-name="discord" data-source-line="20" id="ent0012"><rect fill="#F1F1F1" height="36.0986" rx="2.5" ry="2.5" style="stroke:#181818;stroke-width:0.5;" width="67.4551" x="194.84" y="519.0386"/><text fill="#000000" font-family="Arial" font-size="14" lengthAdjust="spacing" textLength="47.4551" x="204.84" y="542.1705">Discord</text></g><!--entity signal--><g class="entity" data-qualified-name="signal" data-source-line="21" id="ent0013"><rect fill="#F1F1F1" height="36.0986" rx="2.5" ry="2.5" style="stroke:#181818;stroke-width:0.5;" width="58.917" x="624.11" y="519.0386"/><text fill="#000000" font-family="Arial" font-size="14" lengthAdjust="spacing" textLength="38.917" x="634.11" y="542.1705">Signal</text></g><!--entity imessage--><g class="entity" data-qualified-name="imessage" data-source-line="22" id="ent0014"><rect fill="#F1F1F1" height="36.0986" rx="2.5" ry="2.5" style="stroke:#181818;stroke-width:0.5;" width="162.4199" x="718.36" y="519.0386"/><text fill="#000000" font-family="Arial" font-size="14" lengthAdjust="spacing" textLength="142.4199" x="728.36" y="542.1705">iMessage/BlueBubbles</text></g><!--entity other_channels--><g class="entity" data-qualified-name="other_channels" data-source-line="23" id="ent0015"><rect fill="#F1F1F1" height="36.0986" rx="2.5" ry="2.5" style="stroke:#181818;stroke-width:0.5;" width="118.0547" x="915.54" y="519.0386"/><text fill="#000000" font-family="Arial" font-size="14" lengthAdjust="spacing" textLength="98.0547" x="925.54" y="542.1705">Other Channels</text></g><!--entity openai--><g class="entity" data-qualified-name="openai" data-source-line="25" id="ent0016"><rect fill="#F1F1F1" height="36.0986" rx="2.5" ry="2.5" style="stroke:#181818;stroke-width:0.5;" width="93.9307" x="1008.6" y="646.1886"/><text fill="#000000" font-family="Arial" font-size="14" lengthAdjust="spacing" textLength="73.9307" x="1018.6" y="669.3205">OpenAI API</text></g><!--entity anthropic--><g class="entity" data-qualified-name="anthropic" data-source-line="26" id="ent0017"><rect fill="#F1F1F1" height="36.0986" rx="2.5" ry="2.5" style="stroke:#181818;stroke-width:0.5;" width="105.5996" x="1137.77" y="646.1886"/><text fill="#000000" font-family="Arial" font-size="14" lengthAdjust="spacing" textLength="85.5996" x="1147.77" y="669.3205">Anthropic API</text></g><!--entity other_ai--><g class="entity" data-qualified-name="other_ai" data-source-line="27" id="ent0018"><rect fill="#F1F1F1" height="36.0986" rx="2.5" ry="2.5" style="stroke:#181818;stroke-width:0.5;" width="93.1377" x="1278" y="646.1886"/><text fill="#000000" font-family="Arial" font-size="14" lengthAdjust="spacing" textLength="73.1377" x="1288" y="669.3205">Other LLMs</text></g><!--entity macos_app--><g class="entity" data-qualified-name="macos_app" data-source-line="29" id="ent0019"><rect fill="#F1F1F1" height="36.0986" rx="2.5" ry="2.5" style="stroke:#181818;stroke-width:0.5;" width="95.4756" x="1049.83" y="214.6986"/><text fill="#000000" font-family="Arial" font-size="14" lengthAdjust="spacing" textLength="75.4756" x="1059.83" y="237.8305">macOS App</text></g><!--entity ios_app--><g class="entity" data-qualified-name="ios_app" data-source-line="30" id="ent0020"><rect fill="#F1F1F1" height="36.0986" rx="2.5" ry="2.5" style="stroke:#181818;stroke-width:0.5;" width="72.1377" x="1180.5" y="214.6986"/><text fill="#000000" font-family="Arial" font-size="14" lengthAdjust="spacing" textLength="52.1377" x="1190.5" y="237.8305">iOS App</text></g><!--entity android_app--><g class="entity" data-qualified-name="android_app" data-source-line="31" id="ent0021"><rect fill="#F1F1F1" height="36.0986" rx="2.5" ry="2.5" style="stroke:#181818;stroke-width:0.5;" width="97.0547" x="1288.04" y="214.6986"/><text fill="#000000" font-family="Arial" font-size="14" lengthAdjust="spacing" textLength="77.0547" x="1298.04" y="237.8305">Android App</text></g><!--entity tailscale--><g class="entity" data-qualified-name="tailscale" data-source-line="33" id="ent0022"><rect fill="#F1F1F1" height="36.0986" rx="2.5" ry="2.5" style="stroke:#181818;stroke-width:0.5;" width="75.2412" x="1068.94" y="519.0386"/><text fill="#000000" font-family="Arial" font-size="14" lengthAdjust="spacing" textLength="55.2412" x="1078.94" y="542.1705">Tailscale</text></g><!--entity clawhub--><g class="entity" data-qualified-name="clawhub" data-source-line="34" id="ent0023"><rect fill="#F1F1F1" height="36.0986" rx="2.5" ry="2.5" style="stroke:#181818;stroke-width:0.5;" width="76.7998" x="1406.17" y="646.1886"/><text fill="#000000" font-family="Arial" font-size="14" lengthAdjust="spacing" textLength="56.7998" x="1416.17" y="669.3205">ClawHub</text></g><!--link user to cli--><g class="link" data-entity-1="ent0002" data-entity-2="ent0007" data-link-type="dependency" data-source-line="36" id="lnk24"><path d="M1112.59,83.7286 C1160.05,90.9686 1309.18,118.8786 1402.57,194.6986 C1510.73,282.5186 1530.94,326.1286 1569.57,459.9886 C1575.36,480.0886 1568.5873,492.1845 1550.7573,503.6445" fill="none" id="user-to-cli" style="stroke:#181818;stroke-width:1;"/><polygon fill="#181818" points="1545.71,506.8886,1555.4438,505.3874,1549.9161,504.1852,1551.1183,498.6576,1545.71,506.8886" style="stroke:#181818;stroke-width:1;"/><text fill="#000000" font-family="Arial" font-size="13" lengthAdjust="spacing" textLength="27.46" x="1516.33" y="313.9925">uses</text></g><!--link user to webchat--><g class="link" data-entity-1="ent0002" data-entity-2="ent0008" data-link-type="dependency" data-source-line="37" id="lnk25"><path d="M1112.8,82.3986 C1167.1,85.8186 1354.04,103.9586 1468.57,194.6986 C1573.21,277.6086 1621.9887,432.8044 1639.0687,499.8444" fill="none" id="user-to-webchat" style="stroke:#181818;stroke-width:1;"/><polygon fill="#181818" points="1640.55,505.6586,1642.2042,495.9497,1639.3156,500.8134,1634.4518,497.9248,1640.55,505.6586" style="stroke:#181818;stroke-width:1;"/><text fill="#000000" font-family="Arial" font-size="13" lengthAdjust="spacing" textLength="54.1899" x="1567.45" y="313.9925">accesses</text></g><!--link user to macos_app--><g class="link" data-entity-1="ent0002" data-entity-2="ent0019" data-link-type="dependency" data-source-line="38" id="lnk26"><path d="M1097.57,119.1386 C1097.57,149.6986 1097.57,185.4686 1097.57,208.5786" fill="none" id="user-to-macos_app" style="stroke:#181818;stroke-width:1;"/><polygon fill="#181818" points="1097.57,214.5786,1101.57,205.5786,1097.57,209.5786,1093.57,205.5786,1097.57,214.5786" style="stroke:#181818;stroke-width:1;"/><text fill="#000000" font-family="Arial" font-size="13" lengthAdjust="spacing" textLength="25.2891" x="1098.57" y="161.8925">runs</text></g><!--link user to ios_app--><g class="link" data-entity-1="ent0002" data-entity-2="ent0020" data-link-type="dependency" data-source-line="39" id="lnk27"><path d="M1112.64,100.6586 C1135.9,129.9986 1176.4925,181.207 1198.9925,209.587" fill="none" id="user-to-ios_app" style="stroke:#181818;stroke-width:1;"/><polygon fill="#181818" points="1202.72,214.2886,1200.2631,204.7511,1199.6137,210.3706,1193.9943,209.7212,1202.72,214.2886" style="stroke:#181818;stroke-width:1;"/><text fill="#000000" font-family="Arial" font-size="13" lengthAdjust="spacing" textLength="25.2891" x="1161.63" y="161.8925">runs</text></g><!--link user to android_app--><g class="link" data-entity-1="ent0002" data-entity-2="ent0021" data-link-type="dependency" data-source-line="40" id="lnk28"><path d="M1112.52,91.0386 C1151.76,115.6786 1253.0785,179.3182 1303.8385,211.1882" fill="none" id="user-to-android_app" style="stroke:#181818;stroke-width:1;"/><polygon fill="#181818" points="1308.92,214.3786,1303.4248,206.2054,1304.6855,211.7199,1299.1709,212.9806,1308.92,214.3786" style="stroke:#181818;stroke-width:1;"/><text fill="#000000" font-family="Arial" font-size="13" lengthAdjust="spacing" textLength="25.2891" x="1225.23" y="161.8925">runs</text></g><!--link user to whatsapp--><g class="link" data-entity-1="ent0002" data-entity-2="ent0009" data-link-type="dependency" data-source-line="41" id="lnk29"><path d="M1082.43,83.6186 C1024.66,91.5186 813.35,123.9486 654.57,194.6986 C486.75,269.4686 407.55,290.1286 337.57,459.9886 C329.03,480.7186 340.0892,499.0334 353.9192,514.2134" fill="none" id="user-to-whatsapp" style="stroke:#181818;stroke-width:1;"/><polygon fill="#181818" points="357.96,518.6486,354.8556,509.3018,354.5926,514.9526,348.9419,514.6896,357.96,518.6486" style="stroke:#181818;stroke-width:1;"/><text fill="#000000" font-family="Arial" font-size="13" lengthAdjust="spacing" textLength="97.5508" x="446.97" y="313.9925">sends messages</text></g><!--link user to telegram--><g class="link" data-entity-1="ent0002" data-entity-2="ent0010" data-link-type="dependency" data-source-line="42" id="lnk30"><path d="M1082.44,82.8186 C986.65,90.3686 463.58,133.8886 316.57,194.6986 C239.42,226.6086 216.14,237.6286 161.57,300.7986 C101.37,370.4686 66.2165,471.4046 53.4165,512.9546" fill="none" id="user-to-telegram" style="stroke:#181818;stroke-width:1;"/><polygon fill="#181818" points="51.65,518.6886,58.1224,511.2652,53.122,513.9102,50.477,508.9099,51.65,518.6886" style="stroke:#181818;stroke-width:1;"/><text fill="#000000" font-family="Arial" font-size="13" lengthAdjust="spacing" textLength="97.5508" x="162.57" y="313.9925">sends messages</text></g><!--link user to slack--><g class="link" data-entity-1="ent0002" data-entity-2="ent0011" data-link-type="dependency" data-source-line="43" id="lnk31"><path d="M1082.52,85.1086 C1001.81,104.5886 618.59,208.7286 477.57,459.9886 C467.17,478.5186 474.0215,497.3349 483.4415,513.3749" fill="none" id="user-to-slack" style="stroke:#181818;stroke-width:1;"/><polygon fill="#181818" points="486.48,518.5486,485.3715,508.7624,483.948,514.2372,478.4731,512.8136,486.48,518.5486" style="stroke:#181818;stroke-width:1;"/><text fill="#000000" font-family="Arial" font-size="13" lengthAdjust="spacing" textLength="97.5508" x="615.31" y="313.9925">sends messages</text></g><!--link user to discord--><g class="link" data-entity-1="ent0002" data-entity-2="ent0012" data-link-type="dependency" data-source-line="44" id="lnk32"><path d="M1082.74,82.2386 C1012.97,85.4486 711.2,104.2086 485.57,194.6986 C320.67,260.8286 247.76,293.2086 186.57,459.9886 C178.77,481.2386 190.372,499.393 204.762,514.363" fill="none" id="user-to-discord" style="stroke:#181818;stroke-width:1;"/><polygon fill="#181818" points="208.92,518.6886,205.5667,509.4282,205.455,515.084,199.7992,514.9722,208.92,518.6886" style="stroke:#181818;stroke-width:1;"/><text fill="#000000" font-family="Arial" font-size="13" lengthAdjust="spacing" textLength="97.5508" x="283.6" y="313.9925">sends messages</text></g><!--link gateway to whatsapp--><g class="link" data-entity-1="ent0005" data-entity-2="ent0009" data-link-type="dependency" data-source-line="45" id="lnk33"><path d="M1172.3142,403.5433 C995.1042,410.1833 648.75,426.9286 529.57,459.9886 C482.83,472.9586 438.4972,497.2658 408.8672,515.4058" fill="none" id="gateway-whatsapp" style="stroke:#181818;stroke-width:1;"/><polygon fill="#181818" points="1178.31,403.3186,1169.1665,399.6584,1173.3135,403.5058,1169.4661,407.6528,1178.31,403.3186" style="stroke:#181818;stroke-width:1;"/><polygon fill="#181818" points="403.75,518.5386,413.5143,517.2508,408.0143,515.9279,409.3372,510.428,403.75,518.5386" style="stroke:#181818;stroke-width:1;"/><text fill="#000000" font-family="Arial" font-size="13" lengthAdjust="spacing" textLength="83.8081" x="530.57" y="473.1825">communicates</text></g><!--link gateway to telegram--><g class="link" data-entity-1="ent0005" data-entity-2="ent0010" data-link-type="dependency" data-source-line="46" id="lnk34"><path d="M1172.0617,402.2213 C946.6417,407.5813 427.02,423.5286 252.57,459.9886 C191.36,472.7886 129.5021,497.9576 89.0121,516.1676" fill="none" id="gateway-telegram" style="stroke:#181818;stroke-width:1;"/><polygon fill="#181818" points="1178.06,402.0786,1168.9675,398.2937,1173.0614,402.1975,1169.1576,406.2914,1178.06,402.0786" style="stroke:#181818;stroke-width:1;"/><polygon fill="#181818" points="83.54,518.6286,93.3888,518.5852,88.1,516.5778,90.1074,511.2891,83.54,518.6286" style="stroke:#181818;stroke-width:1;"/><text fill="#000000" font-family="Arial" font-size="13" lengthAdjust="spacing" textLength="83.8081" x="253.57" y="473.1825">communicates</text></g><!--link gateway to slack--><g class="link" data-entity-1="ent0005" data-entity-2="ent0011" data-link-type="dependency" data-source-line="47" id="lnk35"><path d="M1172.0808,399.7591 C1047.8508,401.8391 841.23,412.8186 665.57,459.9886 C614.02,473.8286 563.6859,499.2264 531.4059,517.1464" fill="none" id="gateway-slack" style="stroke:#181818;stroke-width:1;"/><polygon fill="#181818" points="1178.08,399.6586,1169.0143,395.8099,1173.0807,399.7423,1169.1482,403.8087,1178.08,399.6586" style="stroke:#181818;stroke-width:1;"/><polygon fill="#181818" points="526.16,520.0586,535.9703,519.1876,530.5316,517.6318,532.0873,512.1931,526.16,520.0586" style="stroke:#181818;stroke-width:1;"/><text fill="#000000" font-family="Arial" font-size="13" lengthAdjust="spacing" textLength="83.8081" x="666.57" y="473.1825">communicates</text></g><!--link gateway to discord--><g class="link" data-entity-1="ent0005" data-entity-2="ent0012" data-link-type="dependency" data-source-line="48" id="lnk36"><path d="M1172.412,402.3121 C970.412,407.4821 538.46,422.5986 392.57,459.9886 C342.7,472.7786 294.6292,497.4313 262.7692,515.6413" fill="none" id="gateway-discord" style="stroke:#181818;stroke-width:1;"/><polygon fill="#181818" points="1178.41,402.1586,1169.3106,398.3902,1173.4116,402.2866,1169.5153,406.3876,1178.41,402.1586" style="stroke:#181818;stroke-width:1;"/><polygon fill="#181818" points="257.56,518.6186,267.3586,517.6254,261.901,516.1375,263.3888,510.6798,257.56,518.6186" style="stroke:#181818;stroke-width:1;"/><text fill="#000000" font-family="Arial" font-size="13" lengthAdjust="spacing" textLength="83.8081" x="393.57" y="473.1825">communicates</text></g><!--link gateway to signal--><g class="link" data-entity-1="ent0005" data-entity-2="ent0013" data-link-type="dependency" data-source-line="49" id="lnk37"><path d="M1172.2601,404.0263 C1073.3701,409.7663 927.49,423.8286 800.57,459.9886 C755.24,472.9086 712.7115,497.271 684.3615,515.441" fill="none" id="gateway-signal" style="stroke:#181818;stroke-width:1;"/><polygon fill="#181818" points="1178.25,403.6786,1169.0333,400.2069,1173.2584,403.9684,1169.4969,408.1934,1178.25,403.6786" style="stroke:#181818;stroke-width:1;"/><polygon fill="#181818" points="679.31,518.6786,689.0457,517.1899,683.5196,515.9806,684.7289,510.4545,679.31,518.6786" style="stroke:#181818;stroke-width:1;"/><text fill="#000000" font-family="Arial" font-size="13" lengthAdjust="spacing" textLength="83.8081" x="801.57" y="473.1825">communicates</text></g><!--link gateway to imessage--><g class="link" data-entity-1="ent0005" data-entity-2="ent0014" data-link-type="dependency" data-source-line="50" id="lnk38"><path d="M1172.2531,408.018 C1100.1031,415.628 1008.83,430.1386 927.57,459.9886 C888.25,474.4386 852.3232,497.5823 827.6432,515.2023" fill="none" id="gateway-imessage" style="stroke:#181818;stroke-width:1;"/><polygon fill="#181818" points="1178.22,407.3886,1168.8501,404.3547,1173.2476,407.9131,1169.6892,412.3106,1178.22,407.3886" style="stroke:#181818;stroke-width:1;"/><polygon fill="#181818" points="822.76,518.6886,832.409,516.7146,826.8293,515.7834,827.7606,510.2037,822.76,518.6886" style="stroke:#181818;stroke-width:1;"/><text fill="#000000" font-family="Arial" font-size="13" lengthAdjust="spacing" textLength="83.8081" x="928.57" y="473.1825">communicates</text></g><!--link gateway to other_channels--><g class="link" data-entity-1="ent0005" data-entity-2="ent0015" data-link-type="dependency" data-source-line="51" id="lnk39"><path d="M1172.4217,412.2589 C1127.2317,420.6889 1081.16,434.3086 1039.57,459.9886 C1015.62,474.7786 999.1884,496.2776 987.9684,513.7776" fill="none" id="gateway-other_channels" style="stroke:#181818;stroke-width:1;"/><polygon fill="#181818" points="1178.32,411.1586,1168.7391,408.8769,1173.4048,412.0755,1170.2062,416.7412,1178.32,411.1586" style="stroke:#181818;stroke-width:1;"/><polygon fill="#181818" points="984.73,518.8286,992.955,513.4111,987.4287,514.6195,986.2203,509.0932,984.73,518.8286" style="stroke:#181818;stroke-width:1;"/><text fill="#000000" font-family="Arial" font-size="13" lengthAdjust="spacing" textLength="83.8081" x="1040.57" y="473.1825">communicates</text></g><!--link gateway to agent--><g class="link" data-entity-1="ent0005" data-entity-2="ent0006" data-link-type="dependency" data-source-line="52" id="lnk40"><path d="M1274.26,430.3186 C1271.87,439.7786 1269.41,450.2686 1267.57,459.9886 C1264.73,474.9186 1263.1527,485.6811 1261.4827,499.6411" fill="none" id="gateway-to-agent" style="stroke:#181818;stroke-width:1;"/><polygon fill="#181818" points="1260.77,505.5986,1265.8107,497.1375,1261.3639,500.634,1257.8673,496.1872,1260.77,505.5986" style="stroke:#181818;stroke-width:1;"/><text fill="#000000" font-family="Arial" font-size="13" lengthAdjust="spacing" textLength="93.1963" x="1268.57" y="473.1825">manages (RPC)</text></g><!--link gateway to cli--><g class="link" data-entity-1="ent0005" data-entity-2="ent0007" data-link-type="dependency" data-source-line="53" id="lnk41"><path d="M1326.15,430.2086 C1339.28,439.5686 1353.64,450.0386 1366.57,459.9886 C1385.45,474.5286 1401.3448,487.5106 1418.1748,501.6406" fill="none" id="gateway-to-cli" style="stroke:#181818;stroke-width:1;"/><polygon fill="#181818" points="1422.77,505.4986,1418.4492,496.6482,1418.9407,502.2836,1413.3052,502.7751,1422.77,505.4986" style="stroke:#181818;stroke-width:1;"/><text fill="#000000" font-family="Arial" font-size="13" lengthAdjust="spacing" textLength="66.4727" x="1385.53" y="473.1825">WebSocket</text></g><!--link gateway to webchat--><g class="link" data-entity-1="ent0005" data-entity-2="ent0008" data-link-type="dependency" data-source-line="54" id="lnk42"><path d="M1376.71,430.4886 C1403.89,439.6386 1433.51,449.9286 1460.57,459.9886 C1500.48,474.8386 1539.09,490.4246 1574.46,505.1346" fill="none" id="gateway-to-webchat" style="stroke:#181818;stroke-width:1;"/><polygon fill="#181818" points="1580,507.4386,1573.226,500.2893,1575.3833,505.5186,1570.154,507.6759,1580,507.4386" style="stroke:#181818;stroke-width:1;"/><text fill="#000000" font-family="Arial" font-size="13" lengthAdjust="spacing" textLength="58.4937" x="1502.88" y="473.1825">HTTP/WS</text></g><!--link agent to openai--><g class="link" data-entity-1="ent0006" data-entity-2="ent0016" data-link-type="dependency" data-source-line="55" id="lnk43"><path d="M1202.5791,571.8016 C1186.2691,581.8316 1173.19,589.8886 1156.57,600.1886 C1131.79,615.5386 1108.7567,629.9266 1088.4867,642.6066" fill="none" id="agent-openai" style="stroke:#181818;stroke-width:1;"/><polygon fill="#181818" points="1207.69,568.6586,1197.9283,569.9659,1203.4309,571.2778,1202.119,576.7804,1207.69,568.6586" style="stroke:#181818;stroke-width:1;"/><polygon fill="#181818" points="1083.4,645.7886,1093.1514,644.4067,1087.6389,643.1369,1088.9087,637.6245,1083.4,645.7886" style="stroke:#181818;stroke-width:1;"/><text fill="#000000" font-family="Arial" font-size="13" lengthAdjust="spacing" textLength="50.5718" x="1157.57" y="613.3825">calls API</text></g><!--link agent to anthropic--><g class="link" data-entity-1="ent0006" data-entity-2="ent0017" data-link-type="dependency" data-source-line="56" id="lnk44"><path d="M1238.5163,573.6773 C1225.4963,597.9773 1213.3615,620.6588 1202.6615,640.6488" fill="none" id="agent-anthropic" style="stroke:#181818;stroke-width:1;"/><polygon fill="#181818" points="1241.35,568.3886,1233.5737,574.4325,1238.9886,572.7959,1240.6253,578.2108,1241.35,568.3886" style="stroke:#181818;stroke-width:1;"/><polygon fill="#181818" points="1199.83,645.9386,1207.6038,639.8915,1202.1896,641.5304,1200.5507,636.1162,1199.83,645.9386" style="stroke:#181818;stroke-width:1;"/><text fill="#000000" font-family="Arial" font-size="13" lengthAdjust="spacing" textLength="50.5718" x="1225.07" y="613.3825">calls API</text></g><!--link agent to other_ai--><g class="link" data-entity-1="ent0006" data-entity-2="ent0018" data-link-type="dependency" data-source-line="57" id="lnk45"><path d="M1276.6137,573.6773 C1289.6337,597.9773 1301.7685,620.6588 1312.4685,640.6488" fill="none" id="agent-other_ai" style="stroke:#181818;stroke-width:1;"/><polygon fill="#181818" points="1273.78,568.3886,1274.5047,578.2108,1276.1414,572.7959,1281.5563,574.4325,1273.78,568.3886" style="stroke:#181818;stroke-width:1;"/><polygon fill="#181818" points="1315.3,645.9386,1314.5793,636.1162,1312.9404,641.5304,1307.5262,639.8915,1315.3,645.9386" style="stroke:#181818;stroke-width:1;"/><text fill="#000000" font-family="Arial" font-size="13" lengthAdjust="spacing" textLength="50.5718" x="1300.04" y="613.3825">calls API</text></g><!--link macos_app to gateway--><g class="link" data-entity-1="ent0019" data-entity-2="ent0005" data-link-type="dependency" data-source-line="58" id="lnk46"><path d="M1109.0645,256.5076 C1118.6145,274.4876 1132.49,297.2586 1152.57,316.7986 C1172.87,336.5586 1193.5897,350.8986 1216.9197,364.4286" fill="none" id="macos_app-gateway" style="stroke:#181818;stroke-width:1;"/><polygon fill="#181818" points="1106.25,251.2086,1106.9391,261.0334,1108.5954,255.6244,1114.0044,257.2807,1106.25,251.2086" style="stroke:#181818;stroke-width:1;"/><polygon fill="#181818" points="1222.11,367.4386,1216.3312,359.4633,1217.7847,364.9302,1212.3178,366.3837,1222.11,367.4386" style="stroke:#181818;stroke-width:1;"/><text fill="#000000" font-family="Arial" font-size="13" lengthAdjust="spacing" textLength="66.4727" x="1153.57" y="313.9925">WebSocket</text></g><!--link ios_app to gateway--><g class="link" data-entity-1="ent0020" data-entity-2="ent0005" data-link-type="dependency" data-source-line="59" id="lnk47"><path d="M1219.127,257.0507 C1221.307,274.1907 1225.04,294.9986 1233.57,316.7986 C1240.51,334.5686 1247.9452,347.8677 1257.5752,362.5877" fill="none" id="ios_app-gateway" style="stroke:#181818;stroke-width:1;"/><polygon fill="#181818" points="1218.37,251.0986,1215.5375,260.5314,1219.0009,256.0587,1223.4736,259.522,1218.37,251.0986" style="stroke:#181818;stroke-width:1;"/><polygon fill="#181818" points="1260.86,367.6086,1259.2801,357.8873,1258.1227,363.4245,1252.5855,362.267,1260.86,367.6086" style="stroke:#181818;stroke-width:1;"/><text fill="#000000" font-family="Arial" font-size="13" lengthAdjust="spacing" textLength="66.4727" x="1234.57" y="313.9925">WebSocket</text></g><!--link android_app to gateway--><g class="link" data-entity-1="ent0021" data-entity-2="ent0005" data-link-type="dependency" data-source-line="60" id="lnk48"><path d="M1329.0149,256.6981 C1319.9149,284.3581 1305.6954,327.5793 1294.4154,361.8593" fill="none" id="android_app-gateway" style="stroke:#181818;stroke-width:1;"/><polygon fill="#181818" points="1330.89,250.9986,1324.2777,258.2978,1329.3274,255.7482,1331.877,260.7979,1330.89,250.9986" style="stroke:#181818;stroke-width:1;"/><polygon fill="#181818" points="1292.54,367.5586,1299.1527,360.2598,1294.1028,362.8092,1291.5535,357.7593,1292.54,367.5586" style="stroke:#181818;stroke-width:1;"/><text fill="#000000" font-family="Arial" font-size="13" lengthAdjust="spacing" textLength="66.4727" x="1315.4" y="313.9925">WebSocket</text></g><!--link gateway to tailscale--><g class="link" data-entity-1="ent0005" data-entity-2="ent0022" data-link-type="dependency" data-source-line="61" id="lnk49"><path d="M1189.17,430.4686 C1173.43,438.4086 1158.14,448.1486 1145.57,459.9886 C1128.38,476.1786 1119.4355,495.9294 1113.6555,512.8894" fill="none" id="gateway-to-tailscale" style="stroke:#181818;stroke-width:1;"/><polygon fill="#181818" points="1111.72,518.5686,1118.4094,511.3401,1113.3329,513.8359,1110.8371,508.7594,1111.72,518.5686" style="stroke:#181818;stroke-width:1;"/><text fill="#000000" font-family="Arial" font-size="13" lengthAdjust="spacing" textLength="109.8589" x="1146.57" y="473.1825">optional integration</text></g><!--link agent to clawhub--><g class="link" data-entity-1="ent0006" data-entity-2="ent0023" data-link-type="dependency" data-source-line="62" id="lnk50"><path d="M1308.94,568.5686 C1325.01,578.3886 1342.68,589.5086 1358.57,600.1886 C1380.54,614.9586 1400.0041,629.2899 1417.1441,642.2499" fill="none" id="agent-to-clawhub" style="stroke:#181818;stroke-width:1;"/><polygon fill="#181818" points="1421.93,645.8686,1417.1637,637.2499,1417.9418,642.853,1412.3387,643.6311,1421.93,645.8686" style="stroke:#181818;stroke-width:1;"/><text fill="#000000" font-family="Arial" font-size="13" lengthAdjust="spacing" textLength="81.6689" x="1381.2" y="613.3825">optional query</text></g><!--link dev to gateway--><g class="link" data-entity-1="ent0003" data-entity-2="ent0005" data-link-type="dependency" data-source-line="63" id="lnk51"><path d="M994.22,271.0686 C1002.62,287.1186 1014.39,304.8886 1029.57,316.7986 C1072.3,350.3186 1123.4125,368.7719 1172.4525,380.4219" fill="none" id="dev-to-gateway" style="stroke:#181818;stroke-width:1;"/><polygon fill="#181818" points="1178.29,381.8086,1170.4582,375.8368,1173.4254,380.653,1168.6092,383.6202,1178.29,381.8086" style="stroke:#181818;stroke-width:1;"/><text fill="#000000" font-family="Arial" font-size="13" lengthAdjust="spacing" textLength="100.458" x="1030.57" y="313.9925">develops/deploys</text></g><?plantuml-src XPLDRzim38Rl-XL2TcaFHIux5SE0r4NN0EaQD1bws8Q2bbb7g2nvbjmi6FRVHqcs8oT8bfF4zw54ySDnqYdaZpNgJC6MN_7LpZgiU6Qqmz-Etqee6wZuHVQnjrqoPj-ahi7RAwEDs3IcGluAoc8Y5VWAhN9tvFKLI9yr4bIYvo3UoiQqkiYCCWt_S1T-Z85mj9ryizXCE5ZUqg8ttk8xAbDtIe7lZDLq3fJ89yChuXi2GQWMtlQ7SVe9KzL6etPyyWKSRc7tGtz_ndnbn1kwyCB6ABvKeF5dEA2CsA7tKl9PIIjodytZaZ-rsicgymDlElJA5dDoo4nLWIxuGchaQsDKz11A7l8KMRO15sFaSqf_ymgYks6BkI2H_MMiGU50brJ9oJEPxAok8-8tKDSfi4Q5lgG1SDqc1LQA4XfKwrUfT2kjC4qHSn_N8qzPQb3HDInJKJwWjPILwOrgyQRDSuKse9Io8AJmezjWm-djMgEAcF6c5z6PHc_sXVTLMCw7ceDCWPbsrAEr50C3lUNuriNY8RsHJagP2iJZYlS9ffsnBmSPbWaWZ-MPBXeZYm61k0_Og50WbHMWC5QgtwM8x_RxDk_Q1xQRDcVCZmk_klhi6ufV--cnUrlND6G78IZlgJOyXjIcrOaYJzYJq8-qllT8iAWBobKiSuBqtNS62IruHk-wy9ZevfP_EeY5fgjgjHGa7q19DAUXFfxJn3wYCwU4wJYBz5Dn5XhFn2aqL2fyeQwfnjgdXryyBRFB4H6xPVWMZhHzrzolrylfyuh5ys8GOTpyvQ0e29gmL1q6xHJGJzb8txTYOFfOqlZa_u2qEKz2wIk74IF2r4uQNoD97rtg2h_heex92iEMWhzQR7QC_f7u-AuY_cFPQO6rCZlB_W40?></g></svg>