<?plantuml 1.2026.2?><svg xmlns="http://www.w3.org/2000/svg" xmlns:xlink="http://www.w3.org/1999/xlink" contentStyleType="text/css" data-diagram-type="DESCRIPTION" height="912px" preserveAspectRatio="none" style="width:602px;height:912px;background:#FFFFFF;" version="1.1" viewBox="0 0 602 912" width="602px" zoomAndPan="magnify"><title>TxInsight &#31995;&#32479;&#19978;&#19979;&#25991;&#22270; - &#38134;&#34892;&#20132;&#26131;&#35760;&#24405;&#21512;&#29702;&#24615;&#20998;&#26512;&#31995;&#32479;</title><defs/><g><g class="title" data-source-line="1"><text fill="#000000" font-family="sans-serif" font-size="14" font-weight="bold" lengthAdjust="spacing" textLength="357.123" x="115.5395" y="23.5352">TxInsight &#31995;&#32479;&#19978;&#19979;&#25991;&#22270; - &#38134;&#34892;&#20132;&#26131;&#35760;&#24405;&#21512;&#29702;&#24615;&#20998;&#26512;&#31995;&#32479;</text></g><!--cluster txinsight--><g class="cluster" data-qualified-name="txinsight" data-source-line="11" id="ent0004"><path d="M149.5,368.9383 L276.5,368.9383 A3.75,3.75 0 0 1 279,371.4383 L286,407.9148 L388.5,407.9148 A2.5,2.5 0 0 1 391,410.4148 L391,775.8683 A2.5,2.5 0 0 1 388.5,778.3683 L149.5,778.3683 A2.5,2.5 0 0 1 147,775.8683 L147,371.4383 A2.5,2.5 0 0 1 149.5,368.9383" fill="none" style="stroke:#000000;stroke-width:1.5;"/><line style="stroke:#000000;stroke-width:1.5;" x1="147" x2="286" y1="407.9148" y2="407.9148"/><text fill="#000000" font-family="sans-serif" font-size="14" font-weight="bold" lengthAdjust="spacing" textLength="68.3389" x="179.8306" y="384.4734">TxInsight</text><text fill="#000000" font-family="sans-serif" font-size="14" font-weight="bold" lengthAdjust="spacing" textLength="126" x="151" y="400.9617">&#20132;&#26131;&#21512;&#29702;&#24615;&#20998;&#26512;&#31995;&#32479;</text></g><!--entity webApp--><g class="entity" data-qualified-name="txinsight.webApp" data-source-line="12" id="ent0005"><rect fill="#F1F1F1" height="62.9766" rx="2.5" ry="2.5" style="stroke:#181818;stroke-width:0.5;" width="179.3301" x="170.33" y="419.9383"/><rect fill="#F1F1F1" height="10" style="stroke:#181818;stroke-width:0.5;" width="15" x="329.6601" y="424.9383"/><rect fill="#F1F1F1" height="2" style="stroke:#181818;stroke-width:0.5;" width="4" x="327.6601" y="426.9383"/><rect fill="#F1F1F1" height="2" style="stroke:#181818;stroke-width:0.5;" width="4" x="327.6601" y="430.9383"/><text fill="#000000" font-family="sans-serif" font-size="14" lengthAdjust="spacing" textLength="89.0176" x="185.33" y="453.4734">Web &#21069;&#31471;&#24212;&#29992;</text><text fill="#000000" font-family="sans-serif" font-size="14" lengthAdjust="spacing" textLength="139.3301" x="185.33" y="469.9617">(Vue 3 + TypeScript)</text></g><!--entity backendApi--><g class="entity" data-qualified-name="txinsight.backendApi" data-source-line="13" id="ent0006"><rect fill="#F1F1F1" height="62.9766" rx="2.5" ry="2.5" style="stroke:#181818;stroke-width:0.5;" width="159.0615" x="189.47" y="559.9183"/><rect fill="#F1F1F1" height="10" style="stroke:#181818;stroke-width:0.5;" width="15" x="328.5315" y="564.9183"/><rect fill="#F1F1F1" height="2" style="stroke:#181818;stroke-width:0.5;" width="4" x="326.5315" y="566.9183"/><rect fill="#F1F1F1" height="2" style="stroke:#181818;stroke-width:0.5;" width="4" x="326.5315" y="570.9183"/><text fill="#000000" font-family="sans-serif" font-size="14" lengthAdjust="spacing" textLength="86.29" x="204.47" y="593.4534">&#21518;&#31471; API &#26381;&#21153;</text><text fill="#000000" font-family="sans-serif" font-size="14" lengthAdjust="spacing" textLength="119.0615" x="204.47" y="609.9417">(Java Spring Boot)</text></g><!--entity postgres--><g class="entity" data-qualified-name="txinsight.postgres" data-source-line="14" id="ent0007"><path d="M163.11,710.3883 C163.11,700.3883 269.0045,700.3883 269.0045,700.3883 C269.0045,700.3883 374.8991,700.3883 374.8991,710.3883 L374.8991,752.3648 C374.8991,762.3648 269.0045,762.3648 269.0045,762.3648 C269.0045,762.3648 163.11,762.3648 163.11,752.3648 L163.11,710.3883" fill="#F1F1F1" style="stroke:#181818;stroke-width:0.5;"/><path d="M163.11,710.3883 C163.11,720.3883 269.0045,720.3883 269.0045,720.3883 C269.0045,720.3883 374.8991,720.3883 374.8991,710.3883" fill="none" style="stroke:#181818;stroke-width:0.5;"/><text fill="#000000" font-family="sans-serif" font-size="14" lengthAdjust="spacing" textLength="123.2793" x="173.11" y="737.9234">PostgreSQL &#25968;&#25454;&#24211;</text><text fill="#000000" font-family="sans-serif" font-size="14" lengthAdjust="spacing" textLength="191.7891" x="173.11" y="754.4117">(&#23458;&#25143;&#20449;&#24687;/&#20132;&#26131;&#35760;&#24405;/&#20998;&#26512;&#20219;&#21153;)</text></g><!--entity bankStaff--><g class="entity" data-qualified-name="bankStaff" data-source-line="7" id="ent0002"><ellipse cx="116.0027" cy="221.4583" fill="#F1F1F1" rx="8" ry="8" style="stroke:#181818;stroke-width:0.5;"/><path d="M116.0027,229.4583 L116.0027,256.4583 M103.0027,237.4583 L129.0027,237.4583 M116.0027,256.4583 L103.0027,271.4583 M116.0027,256.4583 L129.0027,271.4583" fill="none" style="stroke:#181818;stroke-width:0.5;"/><text fill="#000000" font-family="sans-serif" font-size="14" lengthAdjust="spacing" textLength="84" x="69.45" y="286.4934">&#38134;&#34892;&#24037;&#20316;&#20154;&#21592;</text><text fill="#000000" font-family="sans-serif" font-size="14" lengthAdjust="spacing" textLength="93.1055" x="69.45" y="302.9817">(&#21512;&#35268;&#23457;&#26597;&#20154;&#21592;)</text></g><!--entity customer--><g class="entity" data-qualified-name="customer" data-source-line="8" id="ent0003"><ellipse cx="116.0027" cy="51.4883" fill="#F1F1F1" rx="8" ry="8" style="stroke:#181818;stroke-width:0.5;"/><path d="M116.0027,59.4883 L116.0027,86.4883 M103.0027,67.4883 L129.0027,67.4883 M116.0027,86.4883 L103.0027,101.4883 M116.0027,86.4883 L129.0027,101.4883" fill="none" style="stroke:#181818;stroke-width:0.5;"/><text fill="#000000" font-family="sans-serif" font-size="14" lengthAdjust="spacing" textLength="56" x="55.45" y="116.5234">&#38134;&#34892;&#23458;&#25143;</text><text fill="#000000" font-family="sans-serif" font-size="14" lengthAdjust="spacing" textLength="121.1055" x="55.45" y="133.0117">(&#34987;&#23457;&#26597;&#20132;&#26131;&#30340;&#23458;&#25143;)</text></g><!--entity llmService--><g class="entity" data-qualified-name="llmService" data-source-line="18" id="ent0008"><rect fill="#F1F1F1" height="62.9766" rx="2.5" ry="2.5" style="stroke:#181818;stroke-width:0.5;" width="186.4121" x="409.79" y="699.8883"/><rect fill="#F1F1F1" height="10" style="stroke:#181818;stroke-width:0.5;" width="15" x="576.2021" y="704.8883"/><rect fill="#F1F1F1" height="2" style="stroke:#181818;stroke-width:0.5;" width="4" x="574.2021" y="706.8883"/><rect fill="#F1F1F1" height="2" style="stroke:#181818;stroke-width:0.5;" width="4" x="574.2021" y="710.8883"/><text fill="#000000" font-family="sans-serif" font-size="14" lengthAdjust="spacing" textLength="98" x="424.79" y="733.4234">&#22823;&#35821;&#35328;&#27169;&#22411;&#26381;&#21153;</text><text fill="#000000" font-family="sans-serif" font-size="14" lengthAdjust="spacing" textLength="146.4121" x="424.79" y="749.9117">(DashScope/&#36890;&#20041;&#21315;&#38382;)</text></g><!--entity complianceSystem--><g class="entity" data-qualified-name="complianceSystem" data-source-line="19" id="ent0009"><rect fill="#F1F1F1" height="62.9766" rx="2.5" ry="2.5" style="stroke:#181818;stroke-width:0.5;" width="124" x="7" y="419.9383"/><rect fill="#F1F1F1" height="10" style="stroke:#181818;stroke-width:0.5;" width="15" x="111" y="424.9383"/><rect fill="#F1F1F1" height="2" style="stroke:#181818;stroke-width:0.5;" width="4" x="109" y="426.9383"/><rect fill="#F1F1F1" height="2" style="stroke:#181818;stroke-width:0.5;" width="4" x="109" y="430.9383"/><text fill="#000000" font-family="sans-serif" font-size="14" lengthAdjust="spacing" textLength="84" x="22" y="453.4734">&#21512;&#35268;&#23457;&#26597;&#31995;&#32479;</text><text fill="#000000" font-family="sans-serif" font-size="14" lengthAdjust="spacing" textLength="65.1055" x="22" y="469.9617">(&#22806;&#37096;&#31995;&#32479;)</text></g><!--link bankStaff to webApp--><g class="link" data-entity-1="ent0002" data-entity-2="ent0005" data-link-type="dependency" data-source-line="21" id="lnk10"><path d="M150.86,306.4383 C177.49,341.5783 209.8458,384.2565 233.0758,414.9065" fill="none" id="bankStaff-to-webApp" style="stroke:#181818;stroke-width:1;"/><polygon fill="#181818" points="236.7,419.6883,234.4516,410.0995,233.6799,415.7035,228.0759,414.9317,236.7,419.6883" style="stroke:#181818;stroke-width:1;"/><text fill="#000000" font-family="sans-serif" font-size="13" lengthAdjust="spacing" textLength="78.749" x="184.68" y="349.5066">&#20351;&#29992; (HTTPS)</text></g><!--link customer to bankStaff--><g class="link" data-entity-1="ent0003" data-entity-2="ent0002" data-link-type="dependency" data-source-line="22" id="lnk11"><path d="M116,136.3783 C116,160.0783 116,182.9083 116,206.6083" fill="none" id="customer-to-bankStaff" style="stroke:#181818;stroke-width:1;"/><polygon fill="#181818" points="116,212.6083,120,203.6083,116,207.6083,112,203.6083,116,212.6083" style="stroke:#181818;stroke-width:1;"/><text fill="#000000" font-family="sans-serif" font-size="13" lengthAdjust="spacing" textLength="78" x="117" y="179.5266">&#25552;&#20379;&#20132;&#26131;&#25968;&#25454;</text></g><!--link webApp to backendApi--><g class="link" data-entity-1="ent0005" data-entity-2="ent0006" data-link-type="dependency" data-source-line="23" id="lnk12"><path d="M262.02,483.3883 C263.5,506.1183 265.1196,530.851 266.5996,553.551" fill="none" id="webApp-to-backendApi" style="stroke:#181818;stroke-width:1;"/><polygon fill="#181818" points="266.99,559.5383,270.396,550.2971,266.6647,554.5489,262.4129,550.8176,266.99,559.5383" style="stroke:#181818;stroke-width:1;"/><text fill="#000000" font-family="sans-serif" font-size="13" lengthAdjust="spacing" textLength="93.0693" x="266.04" y="526.4866">&#35843;&#29992; (REST API)</text></g><!--link backendApi to postgres--><g class="link" data-entity-1="ent0006" data-entity-2="ent0007" data-link-type="dependency" data-source-line="24" id="lnk13"><path d="M269,623.3683 C269,646.2483 269,671.2483 269,693.9983" fill="none" id="backendApi-to-postgres" style="stroke:#181818;stroke-width:1;"/><polygon fill="#181818" points="269,699.9983,273,690.9983,269,694.9983,265,690.9983,269,699.9983" style="stroke:#181818;stroke-width:1;"/><text fill="#000000" font-family="sans-serif" font-size="13" lengthAdjust="spacing" textLength="68.8213" x="270" y="666.4566">&#35835;&#20889; (JDBC)</text></g><!--link backendApi to llmService--><g class="link" data-entity-1="ent0006" data-entity-2="ent0008" data-link-type="dependency" data-source-line="25" id="lnk14"><path d="M321.51,623.3683 C360.05,646.0883 406.9915,673.7709 445.4915,696.4709" fill="none" id="backendApi-to-llmService" style="stroke:#181818;stroke-width:1;"/><polygon fill="#181818" points="450.66,699.5183,444.9389,691.5015,446.3529,696.9788,440.8757,698.3928,450.66,699.5183" style="stroke:#181818;stroke-width:1;"/><text fill="#000000" font-family="sans-serif" font-size="13" lengthAdjust="spacing" textLength="131.2632" x="401.01" y="666.4566">&#35843;&#29992; (DashScope API)</text></g><!--link bankStaff to complianceSystem--><g class="link" data-entity-1="ent0002" data-entity-2="ent0009" data-link-type="dependency" data-source-line="26" id="lnk15"><path d="M104.62,306.4383 C95.93,341.5783 85.6322,383.2142 78.0422,413.8642" fill="none" id="bankStaff-to-complianceSystem" style="stroke:#181818;stroke-width:1;"/><polygon fill="#181818" points="76.6,419.6883,82.6461,411.9137,77.8019,414.8349,74.8806,409.9907,76.6,419.6883" style="stroke:#181818;stroke-width:1;"/><text fill="#000000" font-family="sans-serif" font-size="13" lengthAdjust="spacing" textLength="52" x="97.71" y="349.5066">&#25552;&#20132;&#25253;&#21578;</text></g><g class="legend" data-source-line="28"><rect fill="none" height="96.4414" rx="7.5" ry="7.5" style="stroke:#000000;stroke-width:1;" width="196.9219" x="379.2802" y="796.3683"/><text fill="#000000" font-family="sans-serif" font-size="14" lengthAdjust="spacing" textLength="178.0625" x="388.7099" y="816.9034">================</text><text fill="#000000" font-family="sans-serif" font-size="14" lengthAdjust="spacing" textLength="73.2539" x="388.7099" y="833.3917">Actor: &#20154;&#21592;</text><text fill="#000000" font-family="sans-serif" font-size="14" lengthAdjust="spacing" textLength="151.3818" x="388.7099" y="849.88">Component: &#24212;&#29992;/&#26381;&#21153;</text><text fill="#000000" font-family="sans-serif" font-size="14" lengthAdjust="spacing" textLength="113.5244" x="388.7099" y="866.3683">Database: &#25968;&#25454;&#24211;</text><text fill="#000000" font-family="sans-serif" font-size="14" lengthAdjust="spacing" textLength="178.0625" x="388.7099" y="882.8566">================</text><line style="stroke:#000000;stroke-width:1;" x1="384.2802" x2="571.2021" y1="803.3683" y2="803.3683"/><line style="stroke:#000000;stroke-width:1;" x1="384.2802" x2="571.2021" y1="819.8566" y2="819.8566"/><line style="stroke:#000000;stroke-width:1;" x1="384.2802" x2="571.2021" y1="836.3448" y2="836.3448"/><line style="stroke:#000000;stroke-width:1;" x1="384.2802" x2="571.2021" y1="852.8331" y2="852.8331"/><line style="stroke:#000000;stroke-width:1;" x1="384.2802" x2="571.2021" y1="869.3214" y2="869.3214"/><line style="stroke:#000000;stroke-width:1;" x1="384.2802" x2="571.2021" y1="885.8097" y2="885.8097"/><line style="stroke:#000000;stroke-width:1;" x1="384.2802" x2="384.2802" y1="803.3683" y2="885.8097"/><line style="stroke:#000000;stroke-width:1;" x1="571.2021" x2="571.2021" y1="803.3683" y2="885.8097"/></g><?plantuml-src RLDDJzj04BtlhnYbXu8gb4DlaLef9AqAwe7MKNlXid6Mn8fZM_RofLA92WGXa3Q8Zr90eA0W8g4cI9KA90B-ZDTs_aNNMJiOYeyxyzwyUMzC5QeIoCoDQPQIBr1m_tJTxh5zLR6lrftTLNPm2oFGs_hhrJViJiFPs_9Q5-ncXzNARct5MJnZvHNdg2PG25b5HJEmYKkGnN8nR-hJMYwbgxe9pzxslqY7LS0vVLRHyZ25LOiWz1piJeTjxY4iKuw8YQdiyjI-EHILIMs83_REbbchxXoVYiVX662BpzEA4iLJKu_GhHEdVCbntibv2FAtSFUNHKcWvMcBwYLY-YB4BjxjjRkpWGo-1iuJY0qScjG4mvCEzCded1AO-GK1o7h9q3MYKOXz9bbWQrNtlCqws-vsaylwD4tW9Ro0pBn19DbK32e4pP9iqZ0UmbdjEuT2Sc8CdCCggzGvVXpFO90CqxTnLDTfQ8PS95ekQIYS8OSfpcABxp2XMpHl4kd3Ut1sBfngYtMsV4lxHjXtTUTREnuDEIvMixjTFamm6uB2GbzzgrXZjxVK3CAFAcsSUUtVNdFHQTRPqVf0RHfR1KdM3HBlBUxRrskikjJxsHBCgbgIY3cZoEG1KoHkCSSN71aRvCSHge8rcKZp5YKbX0Rt02CZhmCx8G7spHqt7eRUPJ8JqZ0AS-yttKCIuFoesRS7mWpX5GeuH6VeBs_rBfRwb1_VI1a_d64KAVlTeMT-RxlBLdx1q7XwDFLVtxq34TQ1PI5rTAt7QmV2kUhAATki8AIIF1y0fd-D_1GMuDMZ3nRwpqd_dqa4_r_mbWfJI80urxZ8CIYdWxDAtDzIK7bY1XSXfA1_?></g></svg>